<mxfile host="app.diagrams.net" modified="2023-02-07T17:26:59.932Z" agent="5.0 (X11; Linux x86_64) AppleWebKit/537.36 (KHTML, like Gecko) Chrome/109.0.0.0 Safari/537.36" etag="3RQM3iBAFTF7rK09Bv54" version="20.8.18" type="github">
  <diagram id="kHY1OseTcj1uOkUIkcS_" name="Page-1">
    <mxGraphModel dx="2503" dy="1018" grid="0" gridSize="10" guides="1" tooltips="1" connect="1" arrows="1" fold="1" page="1" pageScale="1" pageWidth="850" pageHeight="1100" math="0" shadow="0">
      <root>
        <mxCell id="0" />
        <mxCell id="1" parent="0" />
        <mxCell id="UZZHgDdGykuvsF3FpF1L-27" value="" style="rounded=1;whiteSpace=wrap;html=1;dashed=1;fontSize=24;" vertex="1" parent="1">
          <mxGeometry x="280.5" y="915" width="266" height="141" as="geometry" />
        </mxCell>
        <mxCell id="UZZHgDdGykuvsF3FpF1L-12" value="" style="rounded=1;whiteSpace=wrap;html=1;dashed=1;fontSize=24;" vertex="1" parent="1">
          <mxGeometry x="39" y="417" width="749" height="434" as="geometry" />
        </mxCell>
        <mxCell id="UZZHgDdGykuvsF3FpF1L-19" style="rounded=0;orthogonalLoop=1;jettySize=auto;html=1;exitX=0.25;exitY=1;exitDx=0;exitDy=0;fontSize=24;strokeColor=none;entryX=0.362;entryY=0;entryDx=0;entryDy=0;entryPerimeter=0;" edge="1" parent="1" source="UZZHgDdGykuvsF3FpF1L-9" target="UZZHgDdGykuvsF3FpF1L-12">
          <mxGeometry relative="1" as="geometry" />
        </mxCell>
        <mxCell id="UZZHgDdGykuvsF3FpF1L-20" style="edgeStyle=none;rounded=0;orthogonalLoop=1;jettySize=auto;html=1;fontSize=24;entryX=0.25;entryY=0;entryDx=0;entryDy=0;" edge="1" parent="1" target="0Fw2PE83Rp96BrffDZTG-44">
          <mxGeometry relative="1" as="geometry">
            <mxPoint x="310" y="414.5" as="targetPoint" />
            <mxPoint x="326" y="306" as="sourcePoint" />
          </mxGeometry>
        </mxCell>
        <mxCell id="UZZHgDdGykuvsF3FpF1L-23" style="rounded=0;orthogonalLoop=1;jettySize=auto;html=1;exitX=0.67;exitY=1.01;exitDx=0;exitDy=0;entryX=0.75;entryY=0;entryDx=0;entryDy=0;fontSize=24;startArrow=classic;startFill=1;endArrow=none;endFill=0;exitPerimeter=0;" edge="1" parent="1" source="UZZHgDdGykuvsF3FpF1L-9" target="0Fw2PE83Rp96BrffDZTG-44">
          <mxGeometry relative="1" as="geometry" />
        </mxCell>
        <mxCell id="UZZHgDdGykuvsF3FpF1L-9" value="" style="rounded=1;whiteSpace=wrap;html=1;fontSize=24;dashed=1;" vertex="1" parent="1">
          <mxGeometry x="217" y="72" width="372" height="228" as="geometry" />
        </mxCell>
        <mxCell id="0Fw2PE83Rp96BrffDZTG-79" value="" style="rounded=1;whiteSpace=wrap;html=1;fontFamily=Helvetica;fontSize=18;fillColor=none;fontColor=#ffffff;strokeColor=#001DBC;gradientColor=default;dashed=1;strokeWidth=1;perimeterSpacing=0;" parent="1" vertex="1">
          <mxGeometry x="-814" y="275" width="705" height="605" as="geometry" />
        </mxCell>
        <mxCell id="UZZHgDdGykuvsF3FpF1L-8" style="rounded=0;orthogonalLoop=1;jettySize=auto;html=1;entryX=0;entryY=0.75;entryDx=0;entryDy=0;fontSize=24;" edge="1" parent="1" source="0Fw2PE83Rp96BrffDZTG-3" target="0Fw2PE83Rp96BrffDZTG-44">
          <mxGeometry relative="1" as="geometry" />
        </mxCell>
        <mxCell id="0Fw2PE83Rp96BrffDZTG-3" value="" style="shape=image;verticalLabelPosition=bottom;labelBackgroundColor=default;verticalAlign=top;aspect=fixed;imageAspect=0;image=data:image/png,iVBORw0KGgoAAAANSUhEUgAAAOEAAADhCAMAAAAJbSJIAAAAhFBMVEX///8AAABhYWHNzc3T09PCwsJKSkpycnL8/Pz19fXg4OC0tLTj4+Pa2tp/f3/n5+fv7++6urrGxsZoaGg4ODgnJycXFxeXl5eKiop3d3c+Pj4vLy+fn5+urq5PT0+oqKhZWVkeHh6FhYWQkJCbm5tFRUULCws6OjohISEpKSkYGBgyMjKhW/z/AAAIk0lEQVR4nO2caXuyOhCGiYJsoqitS91QW63t//9/h5CFCQFJ+2IRz9wfepUIYx5IJpNJ0LIQBEEQBEEQBEEQBEEQBEEQBEEQBEEQBEEQBEEQBEEQBEEQBEEQBEEQBEGQ/w3O6IOQz9570HZF7sQ7kbz1267MHQjmBDJruz6NMyUFrn7bVWqWqCgwldh2nRrF0wU+WUMd5bLcN/n/tO1qNUfMJZ0zTbHLD1/arldzbJiiV089JlGrtWqSDyYolgU9VrBosU7NwvSs8oIhK0naqlDT8G7ogCI2/L+2VqWGCfRex9rtubUqNcyYKYSx6DorObRWpabR/IrPSt7aq1LDsCdG8oIFKxi1V6WGOTFBrjgWUapz66JOMVQjUUeEbcpJ/SON5w6z0Cux8PD0hKZRONl8i4MTOGPylYfkxw5q9EkZ+edeon7SwRSAUyLQlp/68+JnYYt1/SVbTSAQoQnspBMqPkUwOezpAmGY3gD+n6RMYiikBwTkKZzecvQp/k+Uax2K7J2wvrVeydtkc+5k6+mGmma8fM0qf1gOYfGFa2KutS+aLEyq9hXRAR1Yx2eyo2bWtMRP797Omu7Sf4kfn8/Ai03k/aNxsZ39d8dYin2dGsoEhZ7nsdugnMUU9viRSzwa7I5PqY6Q+l2PrOL46DvfmcIxiSIZ5e9JicLB/RSG2ReslDI+4T/KAh6oz6sUxmT3Ts9KhaVOKkkf3HKXfeDQZ0MV5hcOyQMo5N0T9K2ZVqIoHI0CQhXuLzvLOVtkaK0n2QfMmfnZHeIXrh5B4UXrGmFeIw5U6JEwIpNU4XFvWd/HKHGtCxt5nG/P96lCX/pOLu7iXltUeM3KYPKUO9c8IlAULsjb5eXVytqiTT4uH8TbfGWfODR5p7RSnl1IG7U1nNnWnylUPc2L9qWTmwqzctLPdLzRuu+W1mC+Dc++Q/0qVbjZvMPrQL+8r8LgtBaN5h0Mh7wfgnGNdx5wDlBoZy4p3PvpkOG7tDVG6R3b9pK9FdHxxvX80WjEmwnrmZe/UWgPCMSVfoT70o08U4Tp4GJ1tDCHKUxALe6ncEWKbHklxLRJjvA8u+qCq/9NIbjubgr9V00gcy7jXX7MXH7MBcJu+PgKy6eHJLGWyvH1tN3I4FWJrB5e4Sf5Ocpa/6MrdGW1V6FtTxffuh6NvWLhwRXaotYyL9M/KGo+J6TIUjXx4ArFkijM6sO5Yvq44oIn2hdMPLZCkRxVN9HI1NOKDfULoC8ZF208tkLuL7eFYq5mIo69LRO9XpbsJ/qtwumfKGSOVNt5sS30TYofV2RnCgodxkTERfYxC25n9HZ5k+wzWhw4LNk+mMqzCwq5obDMkJUZkk+gGr+8Z4mHaHY7i3N8Bg+voxfZvs+O+D76wYYo6LMnEWjxNaMo30RB21Zu6Da8G2pdS/TEnysUAnm7B5vJCJ2Z5Wb3yie6QiGQ3331hrjGCqdVJy5/qVAI5O1nRFR2xgqFQJ64PVYbuo1TdeLidwqFQJ64KqiQ1CsUAif1hm7T8DMUAnlCWWaarqcwlPNPYtAPhUB+p8birFdqCERd9ZVrth8KgSKnKyYiXHD/DCs2nLJ2MuhPUxzFl67UCy0xx+GC7Tk0dJtGfakQKGZWIiCUg4x3UCpWOR7OCncq0gxdjRU2OB7OxI2X8d+qcJy3NnZUEdMkwj3JOeiocJzvVDNQeDumkcUGMY0gKBhRcndK965QKMjvDGvdMK0gluYNFNbEpTwINYlLOfmix1h7hLLMRGFeo7jEUGyssHZusTSdW2h3qtRPn00VBlqxaujLWGHt/JDoY1Hp/JAU68vmlQVn1TNVqBm6VBuq4Tdz/I1iQWml+c4jlmDeqd82M1UIvNykzJBrrrCpPI1ALh//o8J8KZ0p/Pi9wspcm9o8lVyb0mRUhXLUYv2wsP/vYq5QxiGlhj5+oLA6X+qDTHEhXwqXopnCV+GgPnkxX1xVF+lJvcK5GPG/+FrCUL1zuiEDKnPegcj2G+W8eYI8USqhDLVKpF+hcCc7zk4xpLhwxVFHk/q1/6hq3YIHN2brFiJk4U4i4Y8EoOwSrM7TiJCFO23WOJRm+pIbCs6j/dJgAwxYe9qA9sA9reHak0g8Mm/Dj8By3Um5PTcyUWIHyAQaAu1mkRuKiR+kj9DoZa2y9cOB/FLBzfVDMVFlToIfyE0AQmC9QrmiMISGZNUWwJBrW2/ht+WZbNpuYg2Yd9M5MJhGszTP5E/ykbZeoZgwnT1wV8mVGbpAQ6ljG9A/Hwb7jsoUsmdYso5foVC8YZTAamoYKBSGmLdJqg0daCXTR90z2KdVppD3Q30vRvkacB7KZ07CO5NSDBTKnTzM0KHS0MC3dk7afk023pcp5KO+tp8G2lOziWIXYObc/Ktao625Qmko8zb+WjUUSkPTnnWyTvFGmctWULYnSgwA9XuiEnEoZuhsCIXZtvWwZMRPckNMoQzPVpWGrgEwdBpE/ngFzFRRsa9NDJQ39rVFMzclD7ldBm8MQ1HRl/RheNmp3HHZheusICvIZy6rckPfNMMIDEWjnlv/pl3l3sQ8Vqzcm1hL4IThtIkNm/9gqLi/FEQIM1JCo/tL/wJ9kguiyYMusHN7hPVVXjh58DWJxbzVwxOXCIShaPf36ksBle9bOCAP0MH3LUTwUHxnRlFi83dmtt3TJ+cD2ntPBgusHYG3wLxgUZDcdfikXX//8GleVw90B6m9kdhtKt8DfhqFPFcHQ1cWXs8rL+kaTKH+Pv4dd5T/MTwxp/2mgsmUshvwwUH7XQz75lVdouK3TdZt16tB8pz+k/4+TflvDP18q+EjY+sCP+uv6hTab319PtlvfdH1G0XgU/0MluDZf3OP8uy/m4ggCIIgCIIgCIIgCIIgCIIgCIIgCIIgCIIgCIIgCIIgCIIgCIIgCIIgCIJ0mP8AvdRk0Zd6tPcAAAAASUVORK5CYII=;fontFamily=Helvetica;" parent="1" vertex="1">
          <mxGeometry x="-348" y="488.5" width="175" height="175" as="geometry" />
        </mxCell>
        <mxCell id="0Fw2PE83Rp96BrffDZTG-4" value="" style="shape=image;verticalLabelPosition=bottom;labelBackgroundColor=default;verticalAlign=top;aspect=fixed;imageAspect=0;image=data:image/png,iVBORw0KGgoAAAANSUhEUgAAAOEAAADhCAMAAAAJbSJIAAAAkFBMVEUAt/D+/v7///////4AtvAAtO8Asu+W3ffs+f3z+v0AufEdu/Gd2vdMw/Ln9fyV1/bH7PopwfLf9fxv0fX4/f7T8PtpzfSH1va35vnJ7Pra8/xUx/Ox4/gAr+960fXP7vul4PheyvSq3/hryvRExvOt5fqS3PfC5/mW1/aB1vZXxfOl3PdwzvVpy/SG0/WF2fdxBIJ1AAAegUlEQVR4nO1daXviOs8OtmVCUmgCAcIyLD0Unk6X+f//7pW8ZIEsTqBz5rzX6FOXxPFty7IkS7LHutFgNI1e39+fnp6Wu8XmdIrjMAyDIPAeTNggtopth3F8Oh1nS/zi+/shXftJxx57rsiS9evy4+RJKSEjQfRobFekvpF/kr4fL74O+5ErUheEyeSwiwUh+244bkSAEefHcDp6BEJ//xH/MdiKhDhl+JlO7kS434XyD0RnCVF6x8ugP8L09CdO3hUBhIemNdmA8BL/+fAUCQgOPRCu/yv4iBBj2hFhMpP/HXxEQp6mXRCuAvi3u9yZAKpZtRLh0p1BO+z5364ewLFqf6xA6I9dJxAgGG/GIbg8jyIPnw2+dXFDuHdBuA5dAcrNxU944u8Xrf0WsJiPBvhsupH34mj6jLgVODcI966sRK1xPhgMOGf7sPklCOf2Wb79Tl4VcG5DGLnKUCHWbGCJjxohijDh2bM4hg8BU0PyVzPC6IdrSxDlABHiuuFREfi88CxLv1VQy7cmhHvnRQKLIkDs9rm+2zC8evb4rRCvGLWEcO2+RGDNS73mfq0RLEL/6tn99+628FqH0G+RFwUSY5QvReJsXPcyHNnVs0n8vRujWNUg3LgPrfjJ/FmRJuy57m3UNaaL4rNJ/Wg8hkQwqUS47MA7uAz3UCCZskstwgvbyuLD829eiPjJn1UIV12+ipxXeh7naVuLMGXD0rN7tvlutb4gbTKESdDlq2KMYqnY4r5+XmBWHo1g+t1ciiTXNwhn3Rgn8FlBLiHj81oxJWI2rf/1m0iE1wjXzlu9JmTLQz4m8NW0jcOKfRSe3TbtnQ+jzJayCLvKb9zkctkL8aBpAxAnPoqzZxds0mlB9CVISghrBWF9Axs+OEp6DeRp1Mzk8Mb8mBReAXLGk9NvMa+Rr4oIe2zBcEzY5dOTcNyyIhdWPrtj/LABGXxGbNRh272LhF9A2EsXBu9C3n5khihuex/GqGYkyQA/5f0uBwm8FRCeei0MAcHsZfuyDB0MdwHhEp+dfa+RX/5k4GcIe2vC+sjErc/62Z4f6kVanCqELatIVJL+VxFgBYLi/0XNYIiWPze819LvsUXYYlNAOK4g5c2B8O1yNotQiGO6PZbtL2TNy5vx+8B4eNlV+IBgvDxX+L4gXi43hAyCxXBW+d7b8Og193xuEDbbvXD2WQX5qGuK8QgNI77Tn18xtKguJV1u4+P/fbU7wJLTzzdCG16otcM1AtiRxYWtiZg8vf7i5oEzPTBvnBy1YRDCXeNehoJ+UEEcbRGYau8S7eDI9Mp+L1gosFHuGT4VSotSb82vvoUCr8rsJ/uT/nwA1HjpvetNVGxUr+r1fd2KRthsj14b8znEKeheD9QQSW3I81x3gLHxP3E0JXA49bNX34K5fm1d5iNI9Z8TGSe6jUmZIc2A8knj+TpMFMJJ43oNpjUIsbOx6TUZv3Kk+xTZ1nLnBT8iwifz7FWPwDTPy8MM5tVEjs1PV3s2XPTnmmUI+TO8ijVQfmheN4drsAj/V4Ewd7Bxn5rJEJZ7ZHo6uDIhd8y8miEclC10iJwQ7hTCxmVImjLXlEHThO81zKEQk6xrJCVqERqfHR8VeyHNsGLLGcIBK2pObghFnCDCQYtOCou1r8h+Sf+2/oAGLhVetnzZMy2xOoSoPRown3n/jViipwsI+aiwFN0QejBChKM2lcR4V37oSUEBoz0z4NUjFN7cukjZWcmQWoRGZKCIymWNfZhHUuQIBywqPOKGUK4Q4drRCywtwqyPtQgFrK5XT/0cxkbUFA4GwM7rEYoIi0vRdQ6HiPDVUVfMEeadq0GYe/yzPtUizERZLg/gaOUMKRVFQcezXdEV4Q4RujoR3RFCegOwCeGHwZMpA2YzVPL1CqFvX3dFuEGELWp3d4TykAHMxXQ9wmxb4dYDFyTmdex9GSHuirITQpRZnrNt6Irwx9kC5Ltb4XGLMJM1dmO26o9e0hah3fiNa90RoScTj7nhc0Z4ecsAzgoyrAGhBWE1MGk2GrWPZv+0uw/XThBnhL43cD1Qc0M4yDQZVjIHGhDmskZ1XoytJhoU4Z+HVvwoTK4IYe6NHozQEi/bO40IrY6mtHZ72qiZ1iJkw2xq9VOuCLfe9HsQXptDTQhRtJiJUv+cFgVPjhDsUTl7gg4I373IUZR2RMijDghha/r+BSTfdQPaeVRAaLfJAcNd0Rnhk+e64Xfl0quQgEaE2WKbQ74ZflwjzPiXFFRnhM/e+6MRZvpaVOT/RoSeNJyJO2Bo5Iw5NS8izKQsX0lnhMtHI+Rpvt8XjwqaEVpZww5yV94cSwgz5YANf7giXDwcYfRjm0EsrIBmhNam56Mf+7KCU0KoDkvMv1M3hOLkPT0aIRTU0tx90IbQypqZWWrW4ikjpLNd/f/J3hFh/A0IRcG0yHwTLQjFybxiVVKr0V4hpLNIDdFMdWv8SOA5xye42xYi2Hewnsz/r1x6mT/rCiGdNhcea0foec1eml4IsRu5D+OtxQK2CJelILJtHUIPTl0R3jiTH4AQjZZsdzTqaRtCERY7np9n3iAsj4ULQufAjy4IPcijETXEG4TXxyrWragamWdb6S1CT15YJ4TOR4edEHoQlyFeIQTv+LYpneKIcd7vguVcgTBz4/y7CGm92H6QmVFGCCcKy1qX/JgilzVJEfgtQuu8ckTofILfESHtzpkeNxYlhMbhz9ZFF3++vnjhuKUKYaYC/T6EVV597Mcsm8QVlBCaA6eyiSXMGQz+uRAyVYmQYnLcEYaOADvPIQGxEJOwjNAauW+lbqfWYVHEXYkwc6k/FqHW/wsngKL5dC3XsQZJbHlQna5lv5TMZDjyW9zWp3F1ugKxtmFaTte6ITQusJJQUyNpTkhfb05IEbY5Nt1D6YTURLZfxxVr4yj3iepvzPU3roL96MCIWnaIk3HP4AWVyxAV/iJidQCu93RBh+bXHnSpzqInuNhhps7G9bKHDYVk+dfnuiHlvCRl/4f+Bn+7RgI7amLqENbcIUcZjudzOXkEgq/z0kYqwMf5fBOCCePn805tfBAvz1/Zfh8uz8ub5CoIlllzGYnCN0oPYxM7l0iXLlnYt+EkbdEmxZiQUnRIdQhJ9V/7Rpv8pf839PBaAX/pL/2lv/SX/tJf+n9JxQI5VJXnkU1DqekHttylCyKI3562aRpFabp9X54C7yF9oXELwtnwhVqO0u3LeRF6Dx7A9k4AhLuLKkfBbcAimX2XZSjuBIktb7YrXmiZfk4u23Hw+wwKQINvzinNnucZs7Yz6+G4f08EBIvL6KplappS//30eO/wuRHAMUqY+iZfz7e/ZrPFYjH79bpfo+mNf2Z8v+iHUUB8mDA9UJP5ZfimWn4brta+HkE2ObvksNxHAIs1DSlO1vYYeyVxEI4Pew1yuuuBEeJUjRwy+4xYskDheLYaqf+NDs6lLfqR3Kw1hGF4mw5CIiJc7tUDk0XHMjcgtmrkErXgrsSKEj6blFYGS4bfuB6BCmJgL6L6KlLYlfiVMXyoU6UbIWcJveS/NbXsLX3C6B+/q4YIZeVhLy5x8/QI8A5qOmbOawaCiLqOE988KiBnPnUhFd8xjQK2OIFsPW5nPwFhhBjZypGfVAIKT5YOjwOc8Vnmf0MqI4Qr5tgLj7hugYPNpq3piarpJcnJi6MIwdHDjnDnE2xXgniCPZ479Vi/EKTYkZFDhQE6bOHJzlkyCVgOcMqHj4Wo8nxYpxI62BHaxD7bOgIXHDrffejoldOItyQ+dSV1HNKlTJZ+65jwq2DTW5LI/CzqWGEMwjW+dXmcSKWDa86dIxsK740QYqNQ+EEzmHZWVISHi5G9PgoiHdxy3qdmh4LIGzhQvvQCSGuAhubm1KYnwR4Xdr+iJBAiRL8235OOhHsym8pdYa2r3IlI1vUeLTghg9flU8NpcJt56UrCm+Ke+4iKPpRjdgfHU2xBTTkMEWAfR80JvQ1Ep629x6fUDvLZ/I6Rkq+skNNTJLUR3lFIgsKm2f3bIqCynbiXkapqAeXUuqIB1UHnAMkqoqP0uytPqW50qbJU0UTMVKT6zd+ndzMZNXFv+TD5gDbgwPjoNq9rdx+PqjbGbOCcvlXTxIy6cScfCM/nFXn3ScUfuxKknE/u6p6ccH5/KUCarutqVKS1NtdcdCEK8G/TC5u7tnjAUiaa8OsdQ44eMIV6BazvaEbOcQofoPzRhCXl0KYPHLu7p1DHxPUsQaNf54PrkKR+DQX+lZEh95w/xPyhldh/HcGQcef8r+aWtryUDyXiwWPGTsXE8d4Ipc/v3AstUbkOVozsQ7adPMb2QYWipXRCS7ce5GKGSakfuMDrC0p2bPmJ9WZTGuj5g4xMYvi8H6Ts9qkyVtnyJ5oYPXuJduF9emOxrSOaEVk/4JNx5xTW1qbRxOhZcJIE4MMqqlK2aNYYnPtz1g1BxKvUXgeiIF0rpeAO0i3IdWEhEnc829DNe1vuvxApGNeoC3Ac9qZfeuLglReyX1Du6G1ahP1bHoZZP/vtafArGxuIqkpiOZLJJFnmI02uLbN32BqHvUi7VkTIuN9rMdGoG0EDNl2gB5mgdVTTsh1Q/Mx2R/xI75atUgR9KzDTYjGjdOrfDdsPEbOsmhDViJ7qn2X/hqnSkm7D7ylMYW51SVuvol8/LG+SGZwjtFlSd4yd5QMUYu2HB1Uk1lYcXJdW70Zm45O5oU+yQc+szbToidDE/694P0OfEJom7lgs2I8cYXiD8PmesbNLPOqJ0MsR1tU1c+uH4SVehfAe/rfpNL0R5lwqa2vTdUFYOYf3IXy+DyGs7bnRdV2Ijv0wsAqS5tPujXci1JsZeSL+6YVwzk0ZZDm5H2FxXyZZOn/cHPbfLS5WeZQPWIeEyrc6zU9mNN47EWqFG1d40stfQCbdi+5Her8spVqh1rUs4pHR2h4hS0VQ5XB2Qvhh9+X79sNE2vHKvYeoeeuSSB/374fi1Ncjgrxk+Oo+nSbKBF5ew21tfhHBA/j/mfU8eFAWQKhH6X69FEaFg3I4cDOh8p6WtV5KFkJPfxmNtBam4o5+aN1WUDRH3vKHNelMPZ1+CFO7l/GepzM00tu7hanJw/9ihXq6Ik64+ftT/wVgGD3mhbHriPCTWTHRX+SZjU+uSu5D1JK0qM8KlvZBGJjk6etaxB1oZLSaO/qhT2TozL14vECSVVeT6q8R2rGb3uF6xT3fsmldXej2fsSWSYvuQ5Vsr/eLc9/BM0w6VmW0+iJENh1o62LXsx9cXzRDQqvkeqWRN7Pbd+z0iSQdr93htkYRbwQx9FS+jdpB5wOlgVYHF3rweipMOj1ebWkdb8qxpO5PXnKui36XKwE5k1Wwkd2v7lwCZsw7W4GiK2nnkzpK7mUbgoyfySXJs6oNfp+h1hU56RySXQUlEHdN9SRu+0A05SODCe8TUiMgfM0TOnx9GcKiRz+sFXi5Deggfc1MYvGOROeWTalPZK2ke1SVumI3/QpBSgi/UJ880P0pPbQPY9SrmJybGEyaRNPNHmIsG5xBj62CSle82Eu5kV3DLaMrjW6u+nPthgqKui20KQIUY1urlXdtWUcXEHP4XfFRCM10XIz4FPI0IZEIi479YAe9p1OZkwqftIrp29jV1Kllri+OUkGFnVVSBLi/jkkGb09d6ShPzdKDU11wIuy5MV0pRrNLy0mcKUqd76tC2b2+DdkVMKXQEDh0gGjupVCxjVWBe9re4CvNbscuLduayXPeI+hITpOqPwsvUSXX3SEaRvIETlTduYniU83Kpq6OG0BtZ0qK7O3szcdvLirLnGEPqF1nfwZba4AyZQ1hWTr82Mwid4Nor2WRQzboEVUlk/WPXXVn5uq0VO6cOmKj0+Elm6XqVve4K2qlC2InWW22ZyUU2m7ArahtgsvhI6gO6cZ/jW1JufZhXqpPCwVw1XD9oKotazcVSu9qa5mlQeaksyd0XQjXmdwdq8VCMDI6uMpMa+yFSR6i260HrLnktNpluc5VEbAbNY8e82dSP3lgxdso3ElOIpnWvAarkb5+SsBpVT/YnE1MDSegYqYsaskkAoKIO79+JXxNajFylhz0BAqPhm7dKkYruDRIXmTdmKOQSfQIIsajSoet6sXUlrmCE3X90potAuE0zxkTEG+TmpaTQ2zGIaY39u25brcIRZy8QC1ClOfsYlIbAcaHCWMldqUM1svRsw8QL6Osa2ckWn8DPshGL1zOb1tm+7fQ6pFLyjK7OGSZVSHkDQiPlGA5svm9AkT8HBWuLePzl6NNmUdFb8oGrqYprSoEsYotBAh36bQQczFNd6HJnhUypuvoUUlyWIO3NfdoDmWd3woWyZ5pMSJszwCCePH19PQ8O4V5CA9OA+ULO+ZXqrZVEik/2DsSVW2zeLP73/vzbhPmlc4EBCqRdeQWAV9VVXCECGvXIW6VA5XDPC6kI5uYppxncAa2Kl3/0CGbG8SFes5fwvKdggCl39XIUcSs29BVIJRTlKU1McUQ7ekTKod5Pgsrc64pqfx4UZJiX3HvXwMJeZwSRnYhVr9tmuAtIpVJvt64Op4qhC3thx81tdoDH/dDAZu9wji6zGJRmDtd5iRepL6uqzCNW9Kyb78NbxNdcCBdxIYvFKkfxx8X3fJ05p6OX2WyHVGHrGZTNNS1TgObla5Tkayj3ecm1KwUbv75SNeqpAWK/hluJvtNp5oDgoTqjtyyqun9r3/+2cRhGMbHf/4576e6DAebL7pc11ql8Et/+mNZeZADK+tpAcqb1NU5UIL6E0U+Z+ZPPMFlChuUeKl77ivusMoZJOd8ZJvGlkb+KNFlTnQZjrhbOYVKE2KGJkRapbFuChc5p2wdH9b2y+b2OVWwY7pdrJWHAXmOu+cvCxExEkxoiUzE5sU0TdPJzXbI5odZ50TdysN9sg/jCvec9DNjGu0ynxgzOL6khf1wlG4XxLKhz7bqRrnYZ46XONOjW7byfrwwX+9Bp/dtZO6eZkm0fTpRJZAja84pvqHKvFcRoklyulG+kXvsfIDqhmdcxhIhxXHoqZ+0/hwmxl8PazZwmEVAO8GPf3yyJGXGZFfSRaomZdYwaVWsk4SuVjiQHSMRlvlUUBLi2thlC5aUu51doGtbiJnx5SNEv0X/RyzHCfL1xzoOUVlrLowhl22335ap5mQYIazjkq8NYrrxT0Oks8221YDspP0WIpw0lfulmQpnazbdyOFBpDu581m0ua3dkhMukC4Zi3Vh+LCZ8KdMD8RFseRzOuRTEGHu4ETHbVXn1cK4zoWhds+fy33Cpgv5M/oAVKjTUDxPmB99/AzVLYtVr83dHRdB/Q0eEBz4IP1QO134uU2SZ1CnFghRnp0uuoaV8R/CmVWGuogD7jAk/w/jH/GrrhsE43QYwIZ07mQymVayGHnuXKVN2HBHCarOQ9ShRkioJC1DMDfZ4IbUcsOubQB52YY1sorkN5RG08vLLg5k+JVas48Upu3rDg3G03Ib+X6lbgYfbOoGUMSNN+mgbRRuli8vy1NoJaSv1Q23uA5YMnM0Oq4qG4Fm2kx+PR+idHss3rmOQzvbptH78+LHtibjBC41ue83Dx7b7goSZZtBe9554qinwNQAwzV5e74n4sEyTuOgWC46/6oXxHNZh5DYw8k/A0vvpZuCYCC6VAr3lEQ2CxYmt9eBIpe+xMUzI9iUDG+ZwrYuhQKHzKnn8Ox1zTMRgZGobhAnNsA4ZrfCQYy2cYGHAN5ZUeeEFKK6bQFHJ3FC+OR1DkLRV5Fbb3bbw8vsZsoDm1yPivS3QT4TYjlF/t/nSha8ylHtBKD64eIdgXevWlg1vfPKiFHdqoCIMAsYxC7NrzZx2O8hg0DBNaRq50GikMp6kQafLrcGYG+9pCtCuWYhVYtqG0H9b+nbpFHhra69imRq29WpDsmG8byY7p16lXmhJp46cZkciDzWcR16csJEsOKv8NHIpsFM6SNyznI5HLF9yXRFhs/mkG7SYQLttjwvKn76qErQFtqhKEcuXZcTr3NuIXLpBvcPtHGahBlaCqiIodBP8n5QrbdR0eYXJ/ZxMN9XCBfSSzLmgK/FYSC96wsJkNvTAFsOBto+a0GYeJ1rEeAOMEVVYMsax4b8qjgd21FJg5SLhF3i3MckB4ejSYtUl2CxNJYiX5jBFPca2KVp0cSjIFy2enlBke5SyYJ53RMvIWIJ6sq8+WRZTjgV+hyU0+3pQIdFR6swQOR7dgRI0igfWoYwCtgz3cRXdv3iHw7KWzKyR8cNhFzi9ThehK3PRzfBP9cPnbF7m+P1sQK566c8MQIEvliYLTv5pUt3Gi4V48MHi4NPfUZzCm2lTxnhpjnefY0p47YtOB8VWK/tfLHyPTE+thWVESHzZUW1WAHBCx9l7gO2PH/qn4PLIfhY03GZ+cjzJmJTE0iHm4g/Xa/nh9nneM9Cci6ihs5ao2jU3eq94sFk2prfL9cVCR6I75ywQ6bWyv001EwET4wdJN30aKosQBry6PymYwb4r7fzYbuaT0fI+FZ2kS+sDWGECPskXuLm1eaYIDa93q5BxoeEbQu+A+SisXbqUUWJC1AlInsR8HDH0KRRBhva9CarOQzjEbNJqDFrC8IAHxH2SYeCt3a9F78/ycUmspUUX2vGX4IS5wLfLpSsQ57jfvCDanBoxId4Qlo7jOcoOrPhRP7MEFKgSfNCJH8YIuwR1IcWbXsCDvijw+su1v748Ej+z8vi+jQChjzW583IUCQhbbhh/Hq0niwovoQmV6ZK4/76s7EbyCKEsHuON05PFh6QVWS/cRzhMhnD8XU9mk5Ruifp0wlundUiYIedkp4iUOc9A7MsD6d1ZQgCbrTZBoQaUAvCoULYPaAIpYJeYnQWNF68pJd0ex6PoTxB8ILSSHl2kUDWlAaGA05ioBsLL2xmzujHr8dqXQQ3mGyBoB7UgnCiEPaIKNoT/+OEjJf7Ue7vXm/phCZ/auOyAEQ4SDfWwtolZhhQkE5qzoYOOXJE2LhYRJxohJ2LLQA59IPjK51B+/vD7OfPn8e3LakwxYrpuCO61A9CE3JzMIoM2PTS592wxncPa1O8gLhj06xV0zJUCCcdwCkSLNrQYQWf/1JFxc3xXri4IMjJ0BwaIkKna83FfOTtDTQDcHMY1+lagT+ir0k47s7ntLmKglwZhNd32bcSxZ+jYFyxT1mUL+Q3XkQIfL0j2GgbOfnDRMz3ohhwA/FejKbVUc1iwyIId8/TAVtfXoaNZWX0TXUKYdfoTHjl0cyTu+I406GMUCDPNLvpIggnjkOH1sohjDJBBOEc9aH8vlxqOX92p9d89BYAVMjmUrtvzCIcdJWmJBkpLztPaYTjmkU6ohXkaatONJ0XuDywtzgySjqM97g1ZhaPCA7+NNcQYc+G/9vFdZK5RGKaIexZFE76mcaHw0XHtkY4CDlj83W1R766pZS9hRGdmQlYpHDJE01F6LOkUPE5mPiuN4TQMVyG8LrYnxupDU//dOSDI2pcWar9isWyS5ACQhyKdIk8/jLEadox64MRc+SE2LcrWvxsiQEsdm9eQNhvElFYp0ZqjmiTki/Z737XMcNt7iJ26Vu6Cdds9mNtzHdU31cos2JUx63v3LXSLx0WFxDWXZfdQlwddJN+SPuCED4CpQPbTffQchQhk3HwAR+D0Qas0oRiVhUdxH+axKI5dzWF5LSMsFddRJQI719fHwhI21I4qRNv9zq9RD3SrGA8QcNqxVZ0yBVrRHJvU8rmakFQhL0jQC1ICwhbfBI1rczIHGD+1CpSqGwn6qaUPhU7gfRkrsNSYUpzhYxmS1SN1RWz8OxqCQkvuUbYI5bYnCcOeOYJsclLfatuhc82rnPJXqVA+9WqbrgQDqg7+a5MKlN2jbCXsNGpnzz/rEkV7lvuMfMkUrLQERdBVsechNkO5YzjajI7RRlhZ91NfXhNvr6CywbUNSMPKD6NSnPCpgVV7jhgvmsQBtn2FQj7rB0RRv6kaMcJcfD9R1w6AbuJnxYlPGzWvuvNGrilViFk+x5XfgkIrm57QYP3AQDJeRxcneOA6zVPyM3VCLsbir+Zum4UtwgdT///cCpImVuEJvvoP00wZk0IH3Ybxr9G1wBvEP7XGRU+rwHdIGSvv/cSxcdSWcjUIFSq73+TRGmbqEfIJt9w2dfvIAj3FWiqEDK3bJs/jAQdoTsjpOjZf7vHHQm8tBpKDUIyNf5LGEG+VU5gE0KWLH/PjaYPIIDjtBZHPUKUOG/BfwAjzsNi3oCiCSFj/mHs6Jz8l4gKdrzVz187QqT58vpc8E8hOg2KP1ajFgCtCJEmr7sY5J+EUx91fQwndeKlI0KkZLQa7jahTl2pOtL+DajscbqU3mk3jHwHdB0QWqD+fPv+9LxcnOKKvK9vpSA8HZfPT++vkcvEFej/AAtZyA209FdFAAAAAElFTkSuQmCC;fontFamily=Helvetica;" parent="1" vertex="1">
          <mxGeometry x="-724" y="321" width="105" height="105" as="geometry" />
        </mxCell>
        <mxCell id="0Fw2PE83Rp96BrffDZTG-5" value="&lt;font style=&quot;font-size: 18px;&quot;&gt;Tiki crawler&lt;/font&gt;" style="rounded=0;whiteSpace=wrap;html=1;fontFamily=Helvetica;" parent="1" vertex="1">
          <mxGeometry x="-711.5" y="541" width="80" height="70" as="geometry" />
        </mxCell>
        <mxCell id="0Fw2PE83Rp96BrffDZTG-6" value="" style="endArrow=classic;html=1;rounded=0;exitX=0.5;exitY=0;exitDx=0;exitDy=0;fontFamily=Helvetica;" parent="1" source="0Fw2PE83Rp96BrffDZTG-5" target="0Fw2PE83Rp96BrffDZTG-4" edge="1">
          <mxGeometry width="50" height="50" relative="1" as="geometry">
            <mxPoint x="-524" y="511" as="sourcePoint" />
            <mxPoint x="-474" y="461" as="targetPoint" />
          </mxGeometry>
        </mxCell>
        <mxCell id="0Fw2PE83Rp96BrffDZTG-7" value="&lt;font style=&quot;font-size: 18px;&quot;&gt;Requests API&lt;/font&gt;" style="text;html=1;strokeColor=none;fillColor=none;align=center;verticalAlign=middle;whiteSpace=wrap;rounded=0;fontFamily=Helvetica;" parent="1" vertex="1">
          <mxGeometry x="-744" y="485" width="60" height="26" as="geometry" />
        </mxCell>
        <mxCell id="0Fw2PE83Rp96BrffDZTG-9" value="" style="endArrow=classic;html=1;rounded=0;exitX=1;exitY=0.5;exitDx=0;exitDy=0;entryX=0;entryY=0.5;entryDx=0;entryDy=0;fontFamily=Helvetica;" parent="1" source="0Fw2PE83Rp96BrffDZTG-5" target="0Fw2PE83Rp96BrffDZTG-3" edge="1">
          <mxGeometry width="50" height="50" relative="1" as="geometry">
            <mxPoint x="-524" y="501" as="sourcePoint" />
            <mxPoint x="-474" y="451" as="targetPoint" />
          </mxGeometry>
        </mxCell>
        <mxCell id="0Fw2PE83Rp96BrffDZTG-10" value="&lt;span style=&quot;color: rgb(27, 27, 27); font-size: 18px; text-align: left; background-color: rgb(255, 255, 255);&quot;&gt;Publish message&amp;nbsp;&lt;/span&gt;" style="text;html=1;strokeColor=none;fillColor=none;align=center;verticalAlign=middle;whiteSpace=wrap;rounded=0;fontFamily=Helvetica;" parent="1" vertex="1">
          <mxGeometry x="-539" y="526" width="90" height="40" as="geometry" />
        </mxCell>
        <mxCell id="0Fw2PE83Rp96BrffDZTG-11" value="" style="shape=image;verticalLabelPosition=bottom;labelBackgroundColor=default;verticalAlign=top;aspect=fixed;imageAspect=0;image=data:image/png,iVBORw0KGgoAAAANSUhEUgAAAQUAAADBCAMAAADxRlW1AAAA81BMVEX///8qJyX+8un5rnH/+fT6vIv5snoqJyT+8Ob/+vf5qmz6vYn+8OT+6dn//vwnJCLfXBL3kTr6xJr4o1z2kz/2kDn5+fkkIR/T0tJAPTu+vb3t7e0zMC4hHRvz8/O4t7bm5eV6eHc2MzFEQT9LSUcdGRbd3NxubGuWlZTJyMiBf36rqqlXVVNQTUsYFBBhX12ko6KOjIv3mUryt5j828H817v3nVT7zKj949H5vZLiXAD0xKrjZBnldj7ogUvrjFb7zab91bfxsIvunG/layrxp33rkGH31ML0xK7lcDHogVPjaSDvm2r44NTtlWHnfUYKAAAAFjohAAAahElEQVR4nO1dC1viSLMGRAPsSAvEBMgdSEISIARvjJdxdVadOY7f7P//NaeruhMC4igKirq1zz4jSUjSb9e9q5pM5j96nIr5fO4DUL74bABy2+ODo82t0vunrc3qxXg7tzgUufHRVmlU4bRb2d3Ff/Ef9ndlNzk5ddluckF8eWU3/XdyHq5llHyB322X/8cuTh6f/D+5X4Xdo5Km3fjZ6XeujEqbR+PcQhgULrZqFAJRHNW2Nt89/UXnUxQrMJijp+OQO6Lfqoi1vy62C7n8R6BcbkznFYAoPRWHfUButHmQKy/EP+tO5cL+XzCw0sHj4ypv/wVXVr+8wnu9PhWqMMOb24/gkN8viWLtg2IA9KVaE8XS/h/NRf6oJo62xvnXeqc3oOL+5kg8PPrDEHNVekF1MXPy/ij3N53q6oMwFDdHldrBR2YERvmDQwrDA5NdrlKJGX8swzCfyuMHuaH490gsbb/2C70RbVMYjuaoyDJlk9r49d/njYhyw+Ecx2G7JI723+B13or2a2LtHufnv4pi9TPohJjyRyNxa2bAIA9bH91ETlNuUxQPZg5tfCalwIiqhlJh6sjff/IjPigVq6PRUfpAnhrJjxs7PESFklhLj/qIWs/PpBo5VcU0M+Q3Po+/lKYcNQkTzTAeiV+fnaV9z7RZqU18pKp4+JkcpgntjyZGAQTic/kKMeVKlcRLoqHF1pu+zJtReXPiRl+MxIs3fZlpurv8dr5XePy6ZdCBKMa64GhUWSMLsX1+urNz+v11YNge7V4wF6H4VRytj9+Y/368Q+n46lX8l9xhhavH3JZYWx+X6eafHaTjg8evfTnlNyqbDIUvW+LG2qCQv9rhKFy/hkzk/6psMCPxZeNeoP12tH3OUdg53XuFl8p/3a0xtLdLlb9W/7wn0s1ZjMLO71cI9YvVyjqicPJPgsLO99W7cuuJQnnvFIThFlH4eTIT3OQKd3fLRaZYXUeJyF+BnTy7YnJxPXFjyvnCzcnV9bfzq5tlxn3riULhGlC4vrniCpKNuFgYn1xen93uHB/vHH+7W+Lz1hOFu2+Awq8CU5LHv++gluDk8te3n6eJ7ThZ4vPWE4WbnzDQqzzTDxSPG8oDKYW5fBTWUTv+YIJAFeH5MRvz8fEUBjvHZ6uSCHFdUCjuwZj/Aef5YGc+xbpiSQ9cR17IYSh1Bu5S+XuKCY6Pb7liWHKwuZZ6oQD+8/H/YXxzdzaB4Pz73nfmQ1wvt7RgHVHI/wDlePwdP5RP6Owf79ye/dr7cZc7+IYgfNtfbnCxdhJRHp9c/Ua2v2QHCufH/5xfnYy/5MuMScCbXHKEtVbasZy/2/vfWewSxKbw7mScK+Kwc7+OmZFc9nrB+khEsXCzd347sYi3N7NXML96FbH2mqAAEFwnXIDK8NusFcjv3TLzsPwYcz0kYptywWnKJJ6eXV/Ohkv5k58MhBWkiNdCOxaub9NOwc//Xd7c5WcLTG5+49kl20hG6yARuYlndHz689feXWEWAgCBmYdvN6tIwK0DL8T5ZioIv/ZuCnMNwPY1t5ErWU5eB144ibXiz70vD8x0+deqzAPSWvHCzum3vZu5/RhlTLvs3K5oTT2NwlvZiNz1xDycnl2dbM/h+humP7+vZvXsuRKhm47jKNJyXmJ8ls4e/HNOGWL2ktx3JjNP6HB5Bj0PBdPo+q7rRsP6cnC4uU57Czun5+PyzI3LLP20s5rl2+foBSVw26pAiJBthF1zGW9R3j5J4XD87aQQeDOX5Jj7/PPHMp43S8/wHetWSyZZSkKWCILlLOU9yoWT/92yZerTq+16pDZnr+CZ2JWs0SwuEV4oUC4QBAFgyBLZNZf0KvmbXzDQ8wsl6Mn2PXDzl2hQb3+sxHdcTCKkZo/A6BMimq8v62Xy473ry7u6RaWtZcYP1DMsrM6MWYZlFYvYi6LguJQJqCjImiYjM2RldVaEX0D5Qi7oEZKVewo/4hn5GxpVwLlLFnEvO8WSWVgipC5IQpa0Qt/qZUE7EHVJmoGT2aPoZjWXM5jT8wtXZ+dXP6hnPcZ4auf3m0fWTh/ekTS6jml6PtUPcmM5ViKhehuwjcXMcQeueQl5x9/Xlye/mAnZW+oDgRaUCEOFd5Qj5FfTlbV+oDz2ncWo2cAnDNFfMH1B7jknzG+8/clchp2zpTPDgij4MqpEbsbqoVWfOi0pTr3ZrDsPICOZjkdPm/PUqYSUyQSAs5AN4JjpZwlpe9xhmmQglrk4h7SYXpBcRIGwmcpIjpk+q3hdt9NS1VbH7dbvjVQyDT9sq6ra6FuBM+0aKt4wAmpKmS44IqQBOCsRRYSowfj39PLc8eWy9ePzUOjNMQtK02qDQ0k9Kark+93pgVIMwhacxf/VMC1Iukd9UXpCznYzko/at00foHRbBBRxUPh+OoPCCwd9jxa0Eb7MfAX3nl1worZM0KUE+ykQ1W2mYJC82OFkToasRmZ8Thl22DfpgDOKRVGkhtLJSEOQDZL1zfLN5a+fqUDj+F52+qW0IApUO+Jcqf4MDHWXnUlIEFIMQ71BcDhT7tbkDtKwzQ+DHDguKkfqkAZgLKhP5sA6xfbN3vczDsTxr6WH1wuigNZcuAeDBG41GwnBKQcXWw5j1al32wgR9bZAIgQGAzM0Ga8vsyNZ0qln6j1QjsRXmu0YDqRyPnd3cvX79vb07Gr5TU2LxhFDPuPJIJDqIfemB2q709I0jojPtVjQYBykaa1Op2Wz00wDZhSff1XTBn0n43VQNrrNHsieFqaxLufufpycLLi3zJNo0VwTfWmGAxEsMz7ooNKkzr8bUG/KafoNnHBCmEw0W8geQttvOqbiGC46HQKbZ6+DCrfhWpbV1TMGugtZt4ew3Vc/q6GFY8q6y8NJQtmWHdK7KkaZvcBkk68bHRQc24dPVIoEiDxcj1tPs9tgytCglxvgh5NGoEiSLlElgYhlVYxW3PrcV1g+LYyC5PW4miNqN5ZsHFTYTHyEMptSuQMXDEFl0HDDTO5hRioqFzr30lDDSU8ARQuTRaBdb0kZvUdp8fyCZPSYgqO+zRDGXfbZiNM+hI7STloexEPA8tPZmDriptGx65GNGoSPV/FJbElIw1jOEJ9Az8g16UZD5qYNjaHJ5r07NXEYDhDVyEgB/DWNUUayIEkh982M7mow6C4/YTK3DEFWu0tLXDxGz8nES0Yr9g0sk1oAGVlhWpGBSRUEdYjqFDCaHtEQtUHbyShgC6iXzI87YYICNZzG+kpEJpPoMPqi1EG0MCHgT1+iuHR0gEI9JIlVnBDGpqRBUaCcIpBWfLqOkXu2pTJN80om4plrU1LAYCDZrq7j9GkzQmzi4Okco/czcaA4eWBVQCIcGZkiPu3BfQXVt9AKaf6Sw/aH6JlrU3q3hbIrW4qJBt+eia+cPmHaEaVHnjX8TZhsLVQy3gDEqWfGx9HxUAOvx/JYw9eRieeuTTkWGHTwfOqoHLVZlm+hTjT5H7O8jfGIZumZAEyEHPI5LwcDZh04s2Fs+Qq0GAp6shbFX5PyAk5rVhtOX2jhQYvBIcj9GYlA7ShHeibS0GRyV1vqot2kBkW3wIMWEnxWS4tYyrLTnXhzIO9UdCMlQIUuu1O8yzJztoHXCWgypyhCtUL53QUU7IgfVnxEoUefUkdzTLTua8jEAig43bAlxC/FeIEKrt5lkVIrLRKo6gXQfixIzE6t3UgK2BVqGYyMjjGqHTOSid4DCx+GLOfQfg3f6ck2whz2IC7uJClHtBF9T/KZJyn3EjaRmmg2iABegGkRTJaksiqBgXaFNLyMifHzIEaQpbizFoiBYmkz910dPVkvdHF5lmRDT6dxjxeykMpXdJflEyCOgJV8SXeGHcLtRybxLYjqOjqerlttA9MUmE7Ak4NYd4KmpbeK0MWqY1JCEF7BXD4ZBSbpwKLWsOuy+BfUmBJyd5oKhTs0mkHUz7K1XG4XnJCwELTjB01jaLW0jocSI4dmpkmvFQQtdixZDK4ysWNCRwVnuHJP+sl6AQfDPKU4dYaZFuoYxHk0IqithppluQW5F+cdIbeOqiOrNlqqQM84HrpSkFZj/kH8EEzDQ/oRiQkTiN2qRh/Tk3mBRUWMBD4q36TeXjtJuQL7CvycMImzlShLEpzQLpoBulKU8dEyyr34GV0cdeJuexiOUnNsrmLoKXq6v2D6gjC1WE3w5YwGjjoFBX5M5wboN1m8zHKPmqVgehnWn9AygluBpOOiD+gLRiwNDYmMFZvLBSxl3ZVlngChw9R4Lp29aK+jyTEQRLbpufR7m5EKpwFFkiW2r0SwLkGCjBTa9N9B4i648BENLP+iq8GFcuteTcdyaRHf0ey2McdMKdu2+GRHAIo6dLq9FmaYSbbV686WO0me31EJO912PSVqUAIPMYQ/WrFLYLrwseFOtGG9h0ca/dXaiYViSt2L3F6/0w+trsdfS/JZ7ChJ9SCy3NC1uoYzh38Vb+i7Yej63aaZkepNSvQWkgd/NJXk/vgxrQzZkcklq6EFI2vJdOpePVXip7jgRTB9piumaSrSQ+WrcNZcVnHgcumlFcDUgEKi4HVCv5XRS2tfMUy4Fzi/N3ppHTSmkrSl1bm9Eb0UBfSlXi0ztip6oV6AZanXSgKskF7ICwquMiWJ9PdKL+WFZhfotdYTV0UvtZRxUdb7pnXoGHp7WoeOoben/1AA+k8igN41LyjLis3eMQpm4FtLKkV/vxLhWESWl9Si8m5R0H1I8cmNpUSz7xYFlvsmraWj8NS6Jqc5NFLF/xLkkMzX9h9Z1td2ly4RT0LBbFodVc62XSN+ftBqt9sNcxlvswAZDZkQubGcJNeCKEiexZLqRGvF66+QPtfar80Lit/INsLmch67GArlZkiSdSZeiadARY/tv3pEZRrDudnu59Bi2pFVuSars1iJ54GA2q9XoZnQEmPZhVDQsfKEEJWtorJEG5Twksb7zjAsJBEBW40L6kEIK1SWmYEyVlnARfg/0oPz9sf8xBKl7M9pkEU8aAVKtlgpphkK/YA1+0EpAgkDw4gXqfV6ELlusrIoOc2u2+v33OFsR5lkNqNeS7PVTtScNXiSE/hhL4yYJYK+tF5oBRPnwDEoNc30vYa+i0tf9ware0O305JbPd8wZ88tjgKWMMgoBlLT4uW5HlvQp84sq2uX6n5Htu147VGqd/tZW5PpebsRTbk45jDM2jJhy7vTHUiS0+1o9FuaTax6RjHc1oDewtb6cU2wHtE72kmxj+REfdW2Nc221d5Mh6fiuS1NA96V7azbnLtytohegBUYgffP6XE4N0xahSI2tLZGCPSCMuCGHTnpGiMknKznK0YIzUVxy9RUdaxuhLKcnAh8NW6+0docBhMKjCdtyPiUeBMAAmUVCZ519m2sDaInhbm2dRG9wMpZZnZc8OPXxUS04hPWa4g1TdBTJmeFSduYlsyeEjVkIVXxIKSq4CSKZFIwImRBFwv8Q1zrBa0FgsBX/OtWVo6LI7BFZ1KTLRnMtDMQ4A068/ysRVBAvSAQNb0GY4ZY00cZHuIaaIbFAmYNS/29HvIBcANvKpN5DEgvxIINmTI6b6MSknQ+rwfDrn5eAAMXMnYaljOsKh8sNQMhxIfSK3gNBcnGI9WDtowVFbBFAOcna84K0kL5BaxQophGE13Gij87YRhSv0mCNRqB2O3QhynzWNWj3Y8CY+gyfJhJVVj5n6b2rCgKVZmV9Jnslp6KNZCN0O0LvCIKPyAcNg5C72qCwGtelD7qFq3vRr4rIFZ2XBwzbAErykLHhS0CsAblXnk+Q2ERfyEEThWgEj4+RIMaQW43JR3K+KATjPJKxFw6ZBMit5m2kobsBYc4CNZcFmInlW60kS9abAaVUMNyeEcvmxET9azvSPQDfZTAuuoUcFxkpo4tLI1qDQFD5BGov+aaG4pviNw3wG4oQYuxUzdzjxbzHR3WFUYSbqB6gCSFrbqPDhSzoHS+5XS7lORgzwx0xUgBzDZpB7Gi8lANDBiDB/gItubnsNJ4/iFMlsedFgCCw8Hus1gZx81obXyog49Ro+QxHeQm/76ZWHTnAdRpAh0B3x8B1QIX9jo0y8mWHl8KreKxvjaHVDzotMCUwZeEBC0grGUbYB0wtnLHpQDYZREPUXGpfLDlcewnEAw8KLO6S04mlIrKiAKblJT4stY0zbofjC+6FwdvEM32mMmCXAdpsTLmKZXFWYH3Reg0FJWzcsMHS0llQ0hiMUbdQYJCHQpn46Z+1nnGxwGQCDZ8kCKb3gG3bmHuyuReOnQgMYloYiGtZU4eYzR4P8J9FBbLvupDVt/IxxdA0RpvYtCh0F3uc96EICsWdfCBCDWTTENg+a88Va8VDCi0AzQSQep7qHuTXjoPrWPAhgp3QPxAQFPWT2+DIxHCn74822ABcybMC38Xzrgpw8akjQX7AOP2Jux/k7knI3U1qO5gYwlBhQ58Hgdjma82paOGyOGgvKUomxLzIXyIy4WgVIK04SKnhVwBl1vadME9nMoO4ObIR9MFo9jYp0WZe7R43lGHbRGobgINbaKEc7uEO6rIfHRQHi2gvjOjlkzNfdIQJ7HGkGnXy47jUhOKy22uaCQ8HuteqClkCiMAc/0vgAOqaApR7Nb4F+7EWhfSNQVYWE3mlRk8Yz1Cj7LxfNUxyOTdDU145XjPrTpYv4FDlUUHCjdbk8YACM+pbpzyXXDacHMiD8qqBX5HB40mHyNrtUSPDdWeCndEVZRuQWGnQHfAph7TzgGK7NwmpEVQkOI+adRAsFFEgKaITauE0tHmo0W2pyiYri3IUztSsCC0lUZBtzFMk+LpavN3Bw5O1C3U0XM5pH8JGETQoRIh3UGB7Zka9O2Y1j0XyUQvY14S4Ok1bjTW5bZN8vndsG6ZNPhQYEKZXsrwRgKQCKNl93EFKY54sTGEyOm0DBo+AqNFPovtpATdVUnLlZFN1AIEFigGpgV2MeUTO2pyyuXNvRNCkSXz1nGerBdMw2rw/llMOcGzsTdC7vAXyMZ6KUEBtKPpY62w1HTRu6MHsPNwSkchF+HKAsaKAh8WNl0n6hY0KEG1aQziTiyqFqCnc8JoxiCWSpNt6pGOeQyQL2G6zW0xFDzYeoal2HTmD1HeZMzNRRxbHf6NlZ7X4JXBGRPbf4K+LLDSafSQwcmIa4gzUojWDT6jt6ByKFm7MYeLsTMqYtCZrKMZ3yTdlY6n0Fgjm8D+Wkl5MRPZubn7J+oFycIeWDWqm/VhH/gXGJW1OQnMq/ER6ZjdUHdQDsaxSpSPCLSHAHNLPvZDEepCKQBPIGEH6gBntImaM3YQ2inV5yA7Iz7YaAMmCmITgaS7FPuJsZa6vJPFgoyU5EV1/b6fMkHhabyA2yTQUTY6DfTUW+CuoUTQhzVCD1QW10sMti4PvNqhFbYxXUsI8+ibcXey2ui0G2qXhUCygd8Cju7HaiHVfFyGPlSShQ8QkAgaqEkFvIVk7wY4pdJQk+/71QRHETqV1FabPmZgmlmSuDDPREHp8GCf4IBYfMBMP701fdU65JzsidA5PTwnwIYrmOiQ47BGj3jyB7oM5IaBNk3GMNmkQasg8xfVgb15Ho8+CiayDbOM8T1uduKAOSYpDRPgzpuM56Uk/0Nk+pw2iKzAHdTnohDvMMPu2+L5pjrDBkIc1Eupbg7JaKfWLug0tJMmMCcUklQblRKIkrj/h93KseOFajTWohg14URKETTrolqAWFTIptVC2oevh0njCjhibG+Af80XoaAP+6yXkE5spxvvtWT0IUFod7le6qU8QsnoyTJvFKKuo5/SSnU3qxHWYUVNjYOKPoqnOd7TJlMfQFlt7C1Aqy3GW6j8NTAjKHVEnQiECWrWTsyC4yYJS3nQpKBCtDl3cE/3oHVYphVkodXzJz0buuc3BgMq01Ln38FgMLWCTDVSe2BTgbC1XjTd5uEMezaesdsBNar0mwL4IlJE/xrEwwrgjgOTfTDgAzb2e204DLpUD+nBfzuT27JTkz59M3AbNqWB3PFNtGH2nCBiIRRgwz6v2fRmduzDg/RIHcicAc5pDrtRN6g795YbTG8Y+VHXo2cU/Cre1ME/4zGkP7CL9OQveJKEl6fYL3WnySsbQQC7DErojbfmr3Gvuorj4SUh2JnoVZZ42UMMUGuaO89OvuNalsUIu0EF8tAWtZ8DBSUA5UodlgcqXz4wCnrdlMogeKbhQkqECA9uiPaBUfA67jAIhl0/xEVCcm+LnAl9YBSGWdsWVGLDijB1rO2w/uBGqe+49vUxgn1JSVyAJMuW8/BusR8XBYzg+e6D8qD9xz2PPi4KXkcmJO785hmeh+jj6gUFimF6vdC1Hv+tj4+LAvewnadU5a7HL7C9Nf2HAtAEhS8bla03fpk3o/zX2EZ82RI3VvPLXutP+c3KBttgObcp1j4tClQO2Ibjxa+iuJpf9lp/yh1WqnzsR6PKCn4A813Q9qhyweXgYCRevO3LvBldiGL8O3/btcrmm77Lm1GZqsRYDIobYmkVP+y1/pQriVvJyI/Ew4O3fJk3o31xdJT8GuT4UPz6Ka3E5m5tnHzIb4mlz2glCqOUQICqHB19QsepSoed+pg//IzM8KUklqZ+pOVIHFU/m2bIV0fi0dSRQqmS0hOfg8Y1sTbzez37h3Fw9VkotzXxG2PKV8Xd6mdSkHTA4v20yvaGOFrNryWvJZUv5hqE8n5NPFzRL4ivIe0firX9OZNevBiJpc+iIcelyuhorlEsU0kpzcPn4xHl+9HfD3gGxU1RrH0C3VA8OPyTe1SkfsTo60c3mDkYZfUPSzbli5q4Wxp/ZC8yv79BOf7oj9cU97dGlcPqdvGPV71fKm5XD0VxY/+R8ZXhslGp+iH5IT+ulkSRTvLjug9ZRqxtHn35WHqyvH2xWaMj29p/0gSXcxdw9ai0Vd3/UiyW3z8Vi7n9v7dqIxjVQe7Jk5vf36LiAzQ63Hj/hOOndLj1mEKYxWH7aLN0yL/9AWh0WNo62n6GsisX9o+qXze33j9tfq0e7T9dEubwRK7w5b1TIfdRDf9/9B+thP4fBjeC9OsJ4kIAAAAASUVORK5CYII=;fontFamily=Helvetica;" parent="1" vertex="1">
          <mxGeometry x="-754.02" y="57.5" width="215.02" height="159" as="geometry" />
        </mxCell>
        <mxCell id="0Fw2PE83Rp96BrffDZTG-18" value="" style="shape=image;verticalLabelPosition=bottom;labelBackgroundColor=default;verticalAlign=top;aspect=fixed;imageAspect=0;image=data:image/jpeg,/9j/4AAQSkZJRgABAQAAAQABAAD/2wCEAAkGBxAREBURERIVFRUXFhoZERgWExYWGBgXFxYZFhkYFxgYHTQgHhslJxcYITEhJSorMS8yFx8zODMvNyotLisBCgoKDg0OGxAQGy0lICYtLS0tLS0tKy0tLS0tLS0vLS0tLTUvLS0tLS0tLS0tLS0tLS0tLS0tLS0tLS0tLS0tLf/AABEIAMABBgMBIgACEQEDEQH/xAAcAAEAAgMBAQEAAAAAAAAAAAAABQYDBAcCAQj/xABHEAACAgECBAIFBgsFBwUAAAABAgADEQQFBhIhMRNBByJRYZEUFzJxgdIjQlJTVIKSk5ShsTNicrLTFRYkQ2ODoghzwcLR/8QAGgEBAAMBAQEAAAAAAAAAAAAAAAEDBAIFBv/EADARAAICAQMDAwIFAwUAAAAAAAABAgMRBBIhMUFRBWHwE4EUInGh0ZGx4QYVIzJC/9oADAMBAAIRAxEAPwDuMREAREQBERAEREAREQBERAEREAREQBERAEREAREQBERAEREAREQBERAEREAREQBERAEREAREQBERAEREAREQBERAEREAREQBERAEREAREQBERAEREAREQBERAEREAREQBERAEREAREQBERAEREAREQBERAEREAREQBERAEREAREQBERAEREAREQBERAERPmYB9nwyL3rfdPpFDXPgscVoqs9ljfkoigsx+odPOVvdOLtwHItG38rWty0jUXojN5l/Dr5iFUdTzFenvIBhyS6gmOKdx8AVuXfBJVKqseJfY30Kkz27MSemAM5xkiOto3O4Br9SNKD2p0yq7D3PfaDn9VB9chTtrrqK/VTUajJOp1NwY8pYZK0IDhE6Y5Rjpjucy1ZIXr1wPLp8J8t6n69sjso6vo8r+38l0Ku7Ir5BrafW0+utYj/AJepxbW/ngsAHU+WQensMmeH+IU1PNU6+DqE/tqWOWH99D+PWfJh9Rwek0xrFQILnRXf6K82MnvyrnqcSK4vorGna4pZ4tfWqyhQba2HXmXr26dV65HTBziY/TfW9RCxVX5km8J9/wBU+6O51rGUX6JzbRbtuO41ac81mkXwwzPVy81rkYD+sCFq8xWfWJYZwB197T6V9AqJVq7GXVL6l6JRaw8RSVbl5VOQSM9PbPr69RXZOUIPLjjP3M7TR0eJSvnM2zIBa8cxCrnS3jJY4AyU7nMugl5B9iIgCIiAIiIAiR+9brTpKH1GofkqQAu2C2MkKOijJ6kdpWdP6UtpsGa7rHA7ldLqGwfZ0rgF2iQHD/Fuj17vXpndmrANgam2vAbIH9oo74Pwk9APsREAREQBERAEREAREQBERANTclsNTipuV8eocZwftnKt64itp1tVlljlaLbvwHM2WSvFYyo/tLnL8+T2DDHbr18ylcYbVUNTpbxzBrdXUl+HIVwtdjKWXsTmtBn3D2CV25S3LtySj3s23mjm1mrw+rdS1znqKU+l4NWfoouPL6RGTPWyozr8suGbrxlc/wDKozlK19mRhm9rE+QEkX65z1z3+2V7YUuS6zS8wNFHKazn1sWLlKW9ydwfMFB5GfDz9Wt1Nd3OPHtHo/u+F9zTsSaJ2qoDJx1Jyf6TT2XUFxap7pfap/a5h/JhN2+5EUs7KqjuWIAH2mQvDd6vZqbUIKPeSjDswVK6+YfWVP1zxa4OVU5NeOfuWN84Pe5cM6XUahNRanM9ZBQknoVzjHsHXOB3OJv7hoFuAVieXILAEjIBBx0Pux9pnrctatFbW2dEQZsb8lQOrYAyfqEx6HdtNcvNTfVYvtV1P/zJVmpcYzWWo8J9ce3sPy9DJtemFVNdY7KoGPZ7vs7Ti21aEWcSXsPo1M79vPAUfzbP2TqPFfFum0NDO9il8HkQHLMfZgeXv985v6Ja2tbV6uzq1jgE+85dsfET6/8A0lprZXzvmuH+/OWYPULFGl48Fj4p3Gmq7RDUNy1fKRZacFulSll6AdfWK/CW751tn/SG/c2fdld1nEOnrtak+KzoAXFdFlnLzDIyUU4OJr6Hi/Q3XjTpYwtJICvU6HI64PMOh6HvPt7qoWWZ3o8rT32VVJKttdc/EWlvSzso76kj/tWfdmUelDaT/wA5/d+At+7KT6RKKG0FhuAwpTlbHrKS6rkefYnpNev0j7YoCiywAAAfgm7AYEpemjGW2UkjRHVznBShBsv/AM5+1fnbP4e77sfOftX52z+Hu+7KD85W2/nbP3TSa2HiPT61WbTuW5CA4IKkZ7dD5HB+E6jpoSeFNfPucT1lsFmVbSLPqfSVs9dQtOsQgkjlXLPkdwUA5h38xNRPSztJGRZcR7RpriP8spm57DptRutbOgJro57BjoxLla+b245X+AkzuW9U6UqjFyzAlEqrZ25R3PKg6AZkLSdXKWEjp67mKjFttZwQ3pa470uu0HybR+K7PYpfNNqYRct3ZevUDpHow0Jq25CykNYzMQRg/S5Rn7Fz9syW+kDQo/hublfp6rUup69uh6ye3DViqmy49kRm6+5c9Zfp6oQk5KWcGbVX2TioOG3LIbgvjjbdLqNfZqbittmoCqOR2/BUryL9Ee0uftlt+dfZv0hv3Nv3ZVuFtlq0emUkAWMvPe5xnmI5myfIDr8J5PGGixzA2le/MumuKke0Ny4I98pemXWckmzRHWPO2uDaXGS1/Ovs36Q37m37s2tP6SdodGs+WVqF+kHyrde2FIyfslR2TibR6xmTT2czKMkFGXp2yMjrI3i/YadXfpEdepsbxCOhNaVliCfYSFH2yHpFt3RlkmOue/bOLRdR6WdmPbUk/VVZ92ffnX2b9Ib9zb92QWr1em0VS82K0yFrVEJJPkqooyT0kbfxtoKwDY1qA9AW01qgn3ZWJaWEeJTWSI6yc1mFba+exbz6WNm/SG/c2fdnwelrZT21JP8A2rPuyJ2vcadTUt1LB62zg4I7HBBB6yI4c22mvV62ypQoaxEwBgZVA74+1xOno+ViXUheocSzHGC3fOvs36Q37m37sfOvs36Q37m37srWt4o0lVr0sbC6Y5wlFjgEgMBlVx2ImLa+MNBqbhRVaTYc4Vq3XJHUjqO/TtOfw1ecb1n57k/jLcbvpvHz2Lzs3H+2au0U06lTY30FYMhb3LzAZPulpnF+PtMG0qlQPGF9I0zdOYWG1QMH6s/CdlTsM+zrKLqvpy25NOnu+tDdjB7iIlRefDOfcY62/V3nT6UYGisS65j3stCc9dCD2EOCzfUBnrOgmVPf+H9R451ehdBa6hdRVYSK7gvRW5gCUsUdObByOhHQTPqla6pKnG7tnp8xnkmOM8mfR6pLa1tQ5R1DL9RGevvmlrNrLWm6m002kAOQAy2AdBzoehI7Bhg+WcSN4Cud9NZa4Cq19prVW5lVVblJVsDIZlZv1p41dd2s1dgouurTT6djYaSgL3MQ1VZ50YdQGJ6Z9ZfbPgdNoLpa6dNTxjPVZWPDXfx+pqcltTZv17ChcPqLGvfupsxyr/gQeqv1gZPtm/qKq0qb1QBjr7Ptlc4Hof5PXrNRqrLntrHRuUJXzYLIABnmBGCT7OwmLifiKh2+Si0KCfw75ICL3K83YOwIAXuAc+QnMtNddqfpKTltfLSaSx1wvbt57EppRyRG31a3WafV6cc11bkHwg6i2ui7LUvUX6FSFZSjEYK9DjpJzgn0bUVIflenQqARTXZyu45iC9ljL0DHCqFGcBB169NrgXUpZuF7UkPWdNUCy/RVksfCZ7EkOTjy5Z0Kfd6KuP0lLbtb5a6c9OV58mWT5OKenXR6TRaGmjTUVUtddmwoihmSpT0Y9yMsp6/kz76NdD4W21e2wtYf1jgfyA+Er/8A6hNw8XcqtOvXwqh0H5Vhzj68BfjLnq7F0eiYjGKdOcdR1KJ0+J/rPZ0SSbl4R5vqDbhGC7smvRljwdZrW7W6mw5/6dA8IfZ6hnGOAydZvL6pvyrbj/icnH+b+U67uZO2cLkHo40wU/8Au3n1j+1YTOb+hjSYXUXnzK1r9gLN/VZVQt9qz5yX6mX06HjxgtfF23jVmjRk4V3NluO/h1L5fWWUfbPd2xbVp6x4lGmRewNiIST/AIm6kzFXulJ3Z6WcBk0yivJHUu3O4B9uPDOPrkhvmxaXWhV1C84QkrhyuM4z9E+4T0sKW6Sw30PIy47YSyljPHuRXLsf5Oh/Yq//ACTW0UaVU5tIlQRj1NSqFYjp+L3xIL5vdq/Mn99Z96T+h01OloFdeFrrUkDmzgDLHqevtkwUk8ySX6EWOLjiEpN+5qbP69+qt/6q1J/hqQE/+Tt8JJcBUeLu2t1B7U1V6dD72/C2f/QSD4G3Cq7Rq6sOYs7WjPVXd2dgR3/GmXW8K6K61rnVg7nLlLrEycYzhWx5Smyt21La15L67Y03yc0+FhcHPd3v/wBocRse6nU4H+Cjvj3EIT9s6PxSealaR3uurr/VLczj9lG+Mw7RwnoNLb41NfK4BAJsZvpd+jGYt43Kpdw0dTsB0tcZIxz8vIo/m2IrrdVbUn1JtuV1sXFPCTZm42tI0ViL9K3lpX67WCf0Jlx42vXQbJeVAHh6cVpgdOZgKl/mwle3XbatTX4VoJXIYcrFSCpyCCOxkRqeCdJYvLY+pdc5w2psYZ9uDI1OnnZPMcYJ0eqrqrxLOc+Cp+hjR9dRcR2CVqfecs39F+MvKevr2PlVpwP1rn5iPhWnxmXQaLS6CgqnLVUuWYs3xLE9zIrgveKdUdVbW3Vr+x6Hwwiqhx7DgyyuKgo1t89Sq2TtlO1J4xhf2Jba6vH3zTp3Gn09lze5nK1qf6yC/wDUjuI/4TSj+/a3u/EX4+v8JLbnw5p77fGY2JZy8paq1qyVByAeU9ZoPwJoGcWWC2xhjHiXO/QdQDny90z26Wyc3Lg00a2quuMXnj2NvgnR+Bt+nQ9PwYd/rf1zn4/ymXhbrpltOQbWe457jxHLAfYMD7Jg4u3WvT6c1Bh4to8LToO5Z/VHQdlGe8mK9Mq1iofRVAg+oLyzZHCaiuyMM23Fyl/6f7fGZPRrYqaDV7g4H4W++0E+aVZrX/IZx70W0G/cnvbqVV3P+JzjP/kZfhwTpBX4QfUCvBHJ8ps5ME5I5e2Opm/suw6TQo3gJyBurszZJx2yx8h7Jjr0s1PdLBut1tbrcYZzjHQ86yvx9y27Tdx4zXv7OWmskZ+0idbnNOAKflW4XbgvWiur5Pp2/FsYvz2uvtAIC59xnS5m1E99jaNmlr2VRTEREpNAnyfYgFSv4GqBc6W+/Sc7FmWpwa+YnJIqsBQZ9wEkOGeHl0a2fhXustcPbY4UFiqhFAVAFAAUDoJOz5OFXBSckll98c/1JyUjcuCrTbY2k1Q09dzFrUNXiFXb6b0HmAQtnJBBGeuO+bLs+zUaWhaKUARfaMlm83YnqWPckyTiI1xi3KKSb6+5GTwiAdgB9QxPcSN4i3AabSX3ntXU7/sqTOwcQ2Taqd433cbtQniVISFHMy9QwqrOVIP0a2lh2rgvbGq1+ruqc00W2CkePdgLp61Lk+v19cOOv5M1/QhpuTQ3apyM23Elj0HKg6kn2ZLTcbb9AabNMN7cU2FzZWNVo+U+Ixd+vh83UsfPznzr9UVWutVjltSSSSys92W7MxRA+jbZU3HSXajcTbahtPIrX3BFVBzHChsdM/yml6KeF9JrRq77q2NQt5aFFlihR1Y/RYZ6FB1zLnummo2rY7l07kotbeGzMGLNccA8yjB+kAMeQkdwfUdHw4bF/tHqsdOnd7fUr/qvwmSevvtqtsrk1vsjCHZrzx2fk7UUmk/BqajbuF1AsdGAJwrsdWFJ8sOeh7eR8p49IfCWg0+2vqtNz1sOQ1sLrWDhyMDDMehB7z76X9N02raU7YXIHcActQP+b4TZ9Mr5p0WgTob71AA/JTCAfGwfCa7qrNPq6YQtm8tuWZZ/KvjOFhxeUYuFeDtDVtyarcC7s6qzc1lgC+IQERUQ5LHIHmSTNm7R7AqkvpdQqgHmLUbgFA8ySRgCWjiPT6bwaqrdWNLyOjVMLKkOaugx4oIIGQe3slL491tjaQ06TdbtbZaSrUq+lszWFZrGK1VhsAL3B85k0V61k/8AkttUpSeFHKil25xg6lHauEv2MXCHBu3a2/UautWGlFnh6dEexA3KilnY55u7ds+Rkj/sfh/riu9hkjK/LnU4ODhl6Ht5T16Md82+va6qW1NVbjn8VbLUrcMzEnox7dRgyX2Tb05Fo0m86hkrUBUqt0j8qDoO1ROPLJkW6mUL7VqJ2xjHiO3OMLjLfv57hRylhIhNPwpteq1enp01N4Tmd9SWOrQeGtZ5VDWEDJZl7dcAy2P6JNlJy2ncn36i8/1eSXCOu1Bs1Omvs8Y0NXyWlQrMticwVwvq864OSAOhHSWmfTaVJVLbJyXXMnlvPJTLqUsei/avzd38XqP9SPmv2r83d/F6j/Ul0iaCCn0ejXaUPMdMbMdhbddav7LuV/lNP5pNnDF0psQn8jUWrjPkPW7S+RAKR81u1/k3/wAXf9+ffmv2ofiXfxeo+/LtPFtYZSp7EEH7YGD8s8P6VL99IrB8Ou6xkDMzkJWTy+sxJPl3nS+J6WuOm0gLD5Rqa0blJU+GDz2YI6/RUyx1eiTZlPMtFin2jU3g/EPJHaeAtv0t6aiquzxEz4Ze+2wLzKVOA7EZwSPtl8Lttbgl17mazT77Y2N9OxpfNZtf5N/8Xf8Aen2n0YbWpBaqywD8WzUXOp+tS2CPcZdolBowYdPQlahEUKqjCqoAAHsAHQTNEQSIiIAiIgCIiAIiIAnPfTnuPg7PagODc6Vj6uYO38lx9s6FIjf+HdJrlVNVULFRuZQSQAcYz0MA51ptC1HD1OmAKvfXXV26h9UwBP2c5/ZMj/TvTSPkGhprRWssz6igHA5a1HQZ685/ZnSdJwXt9ViWJSeatg1ebLGCkAgEBmx5mZN74Q0OttW7U0iyxFCo3MwKgEsMYPtJOZh0WkenU/zZcpOTf6/fsdSluOZ+mpzVt+n0dY62WooA81rTAHxK/CW/cNgsbR06allTwmoPrqzKwoZW5SAQcMVGevtkhd6PNrcgvp+Yj6JayxiPqy3SZv8AcXb/AM2/7+77085+jTVdcY2YcJOWduct+x39RZfBVH4O1N+6V7lrL63NSha66qmRfVDY6sx6ZZjIPcLk13EunrQh00iFmx1AcEsR9YJT4To/+4m3+dTEew3WkH6xzTAno52pWLppQjHOSjOnfy9U9vdLv9tunOVttuZbXFPbhLPsnyRvWMJGvtmkXUbrc1iK66fT11rzAHFlzGx+h/urVIr0kcVNtt+kp0enoN17EetX2BZUXBXB6lj8Jd9m2PT6RWWhOUO3M/rMxZsBcksc9gBNPfOEtDrLVu1NId0GEbmYFQDkYwenXznoaWj8PRGlP/qsf5OJPLyQjaPcs9f9nk+f/B2f6kh+D+DTt9+p1l9yO92SxVPCRFLF27noM4/Zls/3E2/82/7+770DgbbsgtRzgdcWWWOuR7VZsGedd6frL4Oq29bX1xBfydqUU84MPo+Tmot1RBHyrUPamfOoYqqP1FK1b9aWyeFUAYHT2T3PYhFQiorouCsREToCIiAIiIAiIgCIiAIiIAiIgCIiAIiIAiIgCIiAIiIAiIgCIiAIiIAiIgCIiAIiIAiIgCIiAIiIAiIgCIiAIiIAiIgCIiAIiIAiIgCIiAIiIAiIgCIiAIiIAiIgCIiAIiIAiIgCIiAIiIAiIgCIiAIiIAiIgCIiAIiIAiIgCIiAIiIAiIgCIiAIiIAiIgCIiAIiIAiIgCIiAIiIAiIgCIiAIiIAiIgCIiAIiIAiIgCIiAIiIAiIgCIiAIiIAiIgCIiAIiIAiIgCIiAIiIB//9k=;fontFamily=Helvetica;" parent="1" vertex="1">
          <mxGeometry x="266" y="98" width="262" height="192" as="geometry" />
        </mxCell>
        <mxCell id="UZZHgDdGykuvsF3FpF1L-52" style="edgeStyle=none;rounded=0;orthogonalLoop=1;jettySize=auto;html=1;exitX=0.5;exitY=1;exitDx=0;exitDy=0;fontSize=24;startArrow=none;startFill=0;endArrow=classic;endFill=1;" edge="1" parent="1" source="0Fw2PE83Rp96BrffDZTG-44" target="0Fw2PE83Rp96BrffDZTG-48">
          <mxGeometry relative="1" as="geometry" />
        </mxCell>
        <mxCell id="0Fw2PE83Rp96BrffDZTG-44" value="" style="shape=image;verticalLabelPosition=bottom;labelBackgroundColor=default;verticalAlign=top;aspect=fixed;imageAspect=0;image=data:image/png,iVBORw0KGgoAAAANSUhEUgAAATgAAACiCAMAAADiKyHJAAAAzFBMVEX///88Oj7iWhw5Nzs1MzclIiguKzDhTwArKC0oJSszMTUwLTLm5ubgTADiWBf7+/tAPkL29vbhVQ+DgoQgHSPy8vKJiIrr6+vV1dVZWFu9vL13dnhiYGOhoKJMSk7b29u0s7STkpT98+7Ly8yjoqTDwsPrknLtn4T87ulRT1NraWyrqqxHRUm3trfxtJ/31srnfVXvq5RoZmn1y7z429Hqi2jkZS720MPmckPlbDn65Nz428/qjWzzwK/oglzkZzHmd0vvp44VEBgAAAmhTFkHAAAXMklEQVR4nO1dCVvbOBOOI9vxlTj3feJwJAFaoJxboO33///TJ9uyPSPJR4A2QHiffXa3jg95PJp555BaKu0h3Meju+/Ht7sexofDVbnSrNWa1fv/dj2Sj4WLaq0coFY93/VYPhLOq+UY1cddj+bj4AeQG5Xct12P56PAfa5BwdXKB7se0QfBeaWM0Lze9Yg+CGo1LLivyVoMV5zC0cl6v+sxfQg8NXnBlSsXux7UB4ArKJwvuZNdD+v941tVIrjm066H9f7B+1TmH652Pa53j5+iifP9w82ux/Xucc+TEWblfu96YO8cB2W54MqVh10P7X3jQWrifP/wfddDe9+A9LeJlK/y5R+ycJEIrvl0AyVXa7q7Htx7xnUTqNgt4nSV49yr3f/Or+/u767P948wA99QfSh9R9wkxz88nF83q37GvdasVI/+0XjfC1yY+y2VTpDgmr9Srzt5vK5UKuDsyt2/G/R7wH+J4GrPJWTyymnxw8HV0X21wvPmPUsMPALfEMw27B+EZPDB7fGzPz3LAmo3e+VLjoBvCOpbWf7hv4tftapMaOG5e+UgfgHfEOZ9r9EcrEb+gXqCSrWSJrS9E9wBmJnsxQ+QlQvih4PHo3JFMGr8VN2rGs9JIqXYRuE8U+X6+E5u1DjsV4gGAq6Ee+B8SbOA0HzsVwYPaFcz9gM/ZDnhPNTKu3yPfw6QxawkrQ9HOebsS+FQwPUjPnqQlmpKR2XPQi4YcAH++pgrOc7uNfesEvvABVwx7rIcAo3pa1y7SW2fOFwJO9Wf8IdU/+AnQu6Pb11sBis/0p7wSfE7ERwXox/JJmuzUrk/uvJ57jluDNsvx1BC3Q8V3P57wLM3qmnVn49sRt7iHMp+5UUoXBhwcUnLR6BTtUq19nSeTMcHnAjYM4dacm9hvrfGJ4XumpFRq9xffINxKK4oZmQ7PyOCDC6Um8AnqH8IPcEVH7zfQ8dQe96j2P7k/Duf7GiK8+2oenP9KKEZT9DA1fYnmfRw8UvMe8OAKzlTev0xdgx70rz543e5Is1GFhYAR0T2orf/m18uSAkJqgUtFZdZ//ydOQe3R5X0cgE18cUqLQ9I8JWf+Vd8aLhX1+VqZqqoYAfmAWpQb9596rrWweNTXuq71qwWmnPuHSIin7rI8O2pmVNloWStfFRsueU1IiLNT9xAd3WXPUP9YOrm+L+CM+43JiKfd23rwVM1e4ZWKne/i6vNIyYin3d55kk5S9v8aOp8m8n2bdsWsI+KkwyHQO3e0+N2pp0jIp94HcT3FH3z0x3XQuCehwPUjNO8/7xE5Faa/KbEo6gLxcBE5DOXGCTrPqgzKO5Cubthh/qJiYhk3Uft+eKlNZXfexTZi4JrvphAYCJS+VdEpNFouPwBCtl5wrFev+/Iz0F37TkMySFJZbTSPHqZymED95x/wZtg0TbaXXTk1DQMw7S6WE4DzfgzREcay7rpn+jFR7w/ph1e1bHMP8lx4t+R4k9ysbT/o1m9OX9BgIkbv2rb3+Al6NlEIWN0RFV8EH0KFdHTFMVewPM8RSf+icZZfGhpR7dyNMWOdbFhBXdU1EFytdyrUgfR/Ln9ZjaYw/2bqdqiL0Xq8EjfVIimmYqiT8DRARWSOgIH5m2iWKZlG1o/uZlqMeU9NIgSH54ZClEpdKjZz2n811e7LekE6iWplf8FiXOolBTFgoZqrpPTRmNGFREoyNA/Dwq436Y62Z01Gt60Fx8cEH0e/t/EBmo8NMiq0+Bs6bf0xhmqdtfb1QrQV/gnjfkjlaymiumBQwtLXQf/IdPkYJ2QS6K0O9Gf3VNC1FDV3Fgcrq2YTP3WqpXM64Ud3JHDRVZ/YLP6vI21u8J+9e+r3MykQlsTewmODYjtz9FLol7Gxza6Yvd0xYgFPDcU41C4m6ZobMwk1r2S/3WsCX8uxXFmZyWlw1uoHXLSryg1ON7hfDOZzD0n+7xLlZxSy6S2wDFq1jc9Z0klM48OuXVitUorIIwBwR4lwFBX1NYogBrrHgXVztV4PB7wkr7ITitRtbu/KGjtuCLNi0IuZ3NpUdev27atGwbp9tNP9UxfbzY2nJTUHyr0eptatFjjJ7rS7kEBN3QFaFR8GnU0agjqWmI206F3JBSax1/w7SanQ7B6XzR6QjkDSfk6D+5mYIYsgYFY5mqYdvYq0BvPiGdYKfiTfxnRrVl0qKMSlTrEpRW7C0eXzFRq2BRLD0AdySq5I3UsPov7X0e4wj2Xl1EjjSvOLP7DUdeW0WpjgqXGZKeN5TPWd5WD0WhN4Lxa2j53UAaTRJZdemg9Go0JqbN3p4LTRcGdEqs793FGDWRCXaibnno+pIN4vE9Jn9eqT8GM66xTPzwEWnGz5b5VXl0XpBYyT/tMdv6UCpkKif5bT8Y2ohPSRdFVz1Si80z2BVxdsXC4UQqYc/Q7cqpdC9lQAbe/ZPWaZjOM1YdKO8dQh3h4eYKkq4naFkFbiOdTz0jYxAJSoE51g8+jHFll5xnD+CzFCKdy8lZ9M9JISlbATBbvyOPHEV/Cr1V/Bmykt9aI2su+mgElqrZYR9MbpKhbCFOQnEvt9eDMn1hr4CI7VCLYncyodo2C8+hUjGiFP8vVpdPzRoky0SnJbGBPi8RK0aAueTEcDs/EuZ3g5HcZiq5SDrtPN5aqkNNitOwEL1UqSmV6dTVLbhLJ+a4yFBGl+fHg/CATf+G1SkioSNRyxUT20qaxq6kZZkIBKXNmho06GCM+7NAzfZ+hwYBNhPt4Exm7WvUoUDdnHBiJQeZ1CVDeoFlwRbSjpE/TaLbO0RUdi1hMDDQkMqIZd2YQgs7rt0kUtC5sYsfvOTYJd9exqjMpbmjUFh/2TBJAl5FghNvvgegqN6G2TLRAF9RsgSc4KLB6mkfnNFdu1APM4CULtc5iptLMrtuRy5uoyiW69aVSV5irOLPqZkIp5tO2qZmtxMYp8V1ahCQzeKnWA9hyr4rwQI1d9TjQ/tnKCIdtScyzHKg1rtjufIOceRqAKGIm8lVoOMXM9jY4CIup7qIdqYJeiI0E16Lm3yIZ9EWmX4hhFVX6ncOr2/GoDZmmyt30BU4v5T7mUCskN0X5I6Vz7w8tSKw0CY0b+XHJjzuhutPcLqNJOANHLJ2GqoLVI2b3Y9RpvTYctiaesDAItToH1UqljPunURI9d9+Hic7J53QxPBwuBm1s+FS7sLHYMebwhYB/jrDRQjWks9Hv2L87TpY53GyR0exghVOnEdF01gY4rg/e3pL/JSws+D5CDvSMWqYgMLlO1oj8On8I1IurFGbmQpdI4awBcJ2L2PiRthBavl+M4FQRYmLPZ8VB6hUuPK9Ub376HSf3xTOadZRFwjR7abLPRrLinfeGAXwjlJ2m6AeOI2DFeGtlf9Y+Xxzj9ZYZGc2ZCRXO5NKWo8CtG+MPM01LQb4ZvJGBLbMTGqYg9Xoi5N5rXJ4lq01uaYOnCJbUHwTRcoOdd4UOYlcGinc6kVADt5q2f2aCZrqVQwaBXPI/e5qlZCTPIVzXbbgvJyyu4w3P5vOzYf+VAQqeQ6h02VhFbxvEj79yBSdbysSADAIsHjC01gXeo+dNRqu6amo6Wa0Xh1tPbGfeWhmaYfhZO8Nsn7bOxDR5YQwhGQCVD4px7G8DtyrfIxhpXOpcdVeIjIg0O19ss+XANmyVsRqiWoY9nm/x4s5kqusq+n6qro8KxPR06nlny0WXoRVeskHGZwXOHiW/BKG/fFdqJLhfaU/GllTCevJGvhmYkiDDULsF1c5bG+L1/ki0yzwT0VgOdFO3rQjt0PW30mhcF6hi4FZv87fRSM2RuFxCySichPHRW2jSt/Y/aXtSwN55p2ZqYkZtj7LUvbFoc89mFYsxYiPJ+0yg7QvcoOhWBcGl5zMH3ItrWwRWE9VW0qFPZznXz1g2Mw12PX2+DuvCs1lxAc2hpHw7Rz5DDzI9kpWt3FRNr7CO+C9uFHSiVFsktUQI0l5m3mDZzksDkvY85dok35acHObvO+iHOKmEU0B2OIPDtdQZvjVjl+UJ/+GKVoUWGUWxeNgZGbzOpZF7vaxIFGAtySCyipGDXijydn30MDuhXQeP1+VU2dWEPRAS9IXhq6siBGRVKPmpX6Y9ua8UyTpTycnY91pmIlhxoY+mpBG+ywyZQwsHlu6347J8iXBmFpjPxtH7CjRYfG1S7LUVS+ytCTAsoK8hNDFbu5DqKqs94qRS2BbaQy+pDsSv+XBxJ+72mL3lCErChLDzcuSeUfS1U+61MfOvjGDyHsKTZ6xZcWGBaFygA0nA4EM9lc+oE27la62avULakcw5I7PnoHTYFi9Jf2+Jh1gWTdYHL69jNt1IKWUyAbeQkIIXGSBmN80g51dHN+Eu3bVm9SavQNgSVS6bznnSmRIUP2U/GEI0MpTpG1FVy1KlXBiz8kUKB9JkNM6fviOkgyTb97k/zn8+l8v+ll45cit1ZK8haxZhmEmYgGWY08F4pWgShqLyZm4mPlCl149arW5rYJmWcAsTcstGmnVlxQUhqdRCRk8t1IJTDGcyyRlpuaROnX8xy5guvI7/gVxnM9YFBdZwFrTB34DY9mjYYR+40e8KtBp0oHPGPxAFi7jC1uwGTir1SxMU8+t5pHwrtGTUop3SIsQXr1WtiwYza/EayaWVR5xcbDLBs6cx4QMKmI1co+cTc9piCL80Vme7M9fQ2UXZfUFIK/lcswjDBBs4Yo4E3e9POaVDNWHOwBG9JTq52SkeEGwYRmJXV7wkDtH46ijHJC9Ovwby3hFZ2DrDcrMUWTGicYmVygJOuoEjc1WV6kBnysXvsVI7SINWwpXcTEYfoP32lRNH6hA18UE4fWevU1zPGOucnvzSRTK1ByncoIff344tLnLphmixuhKOEJ39NxoR+jJmRXReHbDm66lEmcuPJhzWQTdIiytKQb8nHEmsWme67GiCdWpIIwlB3gKHUm5lYwOGs3dZTTgz9CGSBR4oGaOuMrgSzncZkWbCQEfW+rZKi2mkQe9bYC7VORyeIDXI7hFFtDouAmELlZmH4cx6pPtQoyQLbgSuE8HeKkO7FSYynVMRlUAmW2JgABxJrM2xfslSBwgUWemRfYIaJWl9c1LCisINrS/BQiY5HXwpZJjzPiEyNky3UJiZ12OKsg+Rd0D0W8LKJFEJe4+/2YvQkgWhYHTIY9k5sRziBawcgAyprHENAn2mqCEVKbLkDsO0NGFejPo68KQ+eGJS3Yc6xPdkCEDfnkkfuobcpmaUA496Z1Casi1eJCS0k+ele/A3wFjy3HgVIKIsdu4HhLknRtkhW8xn8dCFRxwa6jFemR0ig8aZf4eOMAzEB8cqB79mgSb4qSAlGHZwXf0yXELBMY2bQDYiKQKP09iIkufNXgmcLGWfiukGNPd6PguH8zIU3AaoSwHJtyTMAx2TuCcuyYn+JGnOfEN0xPwqW4PmQhXKs+wl/PHDWBPOo1wbid1qtJwLshHJEi8X5abtIY7B7b/aHTkTsrAsHdaDuihpSeaBiEMgZzj3ckicD0j6osQSdJqSWyCCrWg9rqHe/Kv9kZ5QUQizf9BNotSiHA14m5ALnAo6mAmocSxyQDeV3AJn9anXHSGbTdRXdEHlY87TudBCofA6n4h7UM5BNO5CVS4w16E9Y4YdcRxJxIaTSqrYGr5tU9F2aHGkRA+MCXSqkq0IeCAfHIzX3Yb+lvDMZpUuqFFEUuZD0UYwyDNusv5VTlLi0ohhvAO9pCyhwwFmN0JPgCx3gSQ2HIUVHoK9bzKtlzSc48n6dzkJl39mXABaqHwWhlLFoZSQxuWvTXOBf48+VDcnqSRpOO/g6VPgk78GWOVCjUM+o53XX4LSSuEyVRe+Qn6ax5EICVJJyR0aiH6wb8MV8fQ3yi/1pBLAfRFBk1kP191yAiZ0NouXUPenpN2YA9TZKDkCNUrCwXtIuyKvyyWF36Ri05i0pSEA9k7Bo3AXkJXdJIGNTTRUNJH0PO8A7QXrD0RpSokAuNog87r4k1NO8up1t+7GtuVz/gwJLkig44QNUTIZEcofxY9oiaY7A3AFBhNSL8cvD/Hyt0hAHL969brbebDPiJRN45afIAsx4QpXWSFTB0UfcXoFLUaR9JRwYwAPZEJCWi8JXvBql8TrXuLJas7FS4vjsB72aklVDhdlgmnZ4qJ/LT2vhKuiSWyNmxgzyGjP98KI/oT6jTi4JGRHSSXgdXtcXrgAiUxDfxC3GUhUDk/LMDtyyYWw6YnBDs6wJOVMF8s+dV+HnuKb9RVkI2G6GXHwvKQSTJ5suP6Dl1YgZmvQ3yEycDzTwsUp7pSP/fUU/9BXcXcHGCTXqZ3SntJX//hPhEJiVTKUVJLYSBRfof3Cxtw3exEncUYGug3fNMlpTMiXOmKeTi65BdetCUNxvnhrSF7epTdQ/QcC3hhtroSiEYm+pjMmh4u/hTbPIhDy41gCfW7TGy2wL46k7GoLLS8lj99pCLeL8Wprr/gXGJ7qoZJCRxAJCRUXJbVB9F00FFzxk/Ule4EcCsUsexBby16L0xiW/ZO2YRJzBEfnepd8gxZnCTd8EYqYl0B0s+Wp//TAG8GCNBNSJ6dvhEsq4TIcN1lfwkkkTbSq3vJ6jYZz2LK5okNUbuf7+aILtcGk75/RmQ274voiwtd0xOYe1Zy2zrx+39u0VmyBU6BgkFqwjACKfy3RMyL2yYfTDmcmXsJJZF20qmFSGIIli/IwqXU3YhumpmmmqYs9qGKuUdaiQlTd35HQjl1SEGRCR8CoD0oq1cW6LmafvNdfcnOm2L5yCL3iXeNxC4SwdKkIJB12o/T6XYxAwSC1YAXUTU6nEu7oEVwX14/zEk5SWApJ/Tu1CygDsp7Ohrw1HSEI8aaQMIXXLrapDYped8ZZmxdwEv4W6a8eW+4XKJw829rPfTapN/xqW4JISKPs2iBuQpMkT7itaRRxn9dcdFM7BfCrz6MLOkVFnby+llJ6HeYZimAOQeIVCQkllebCjfEYZSlmjg0FX2g78Ot75QC9eDMZG8lCSnNvILmc9UiBgkFHwAqoOKkkBoq4mdGW2H5+psWcpDdZbibLkrfs+DmjrOS0tHUVAy03la+mSYeRtaNQzgq4QMGgI2BCQvtiaCKNQ/xUrk38hm8mmxW9zcLezEvdP/QT9f9klsKkq0IgVAItAGKuadveJtfm7MvonGYurZ6XMLVgTWK4/0mUS/ouBgn40CXObc383Fm3O6WWdJFdQ9yIK4vQHXE/OC4Ob9JX0vtjNlN2XE7Q6GY8PUjXoKRSqL3DPBqHkkrytaN9Tl9iujXzb9jdrPuNlZez7PRQTX17YltcnhK+B/3YzkhLu1jVVkUaDbxBynwlpuLLCSaVWCPsJqewuy6SYOYna8RJmOC81nzTzysa94TIkg1KVxd8Yhw4tPBj99eGJFKgYcS6qI/3xrrOS1817PEwENMfM0abaUXXUGPIFq0jqpm26bKQHmN/g0kouGVpWm94+dX2w4HGvz2xtdVGsB+oxsnuO+sSLd6nhVJl1Ta0wXKbOKa3WRs0UlP9BZuqf7k6GkY+pQ/A/MCkBSDhOm0N4H9pat9Hp2laOzRzM4MKrjUpUQPnFQkp+oupbtjB2FXL1k0ymMhK3dChgVimvxmt6pbhx6l1f2+g7VtaXG/eXY8Hg/F6NDl85YpIByG1RbnjcAi+les/vNcpNeg/BbuFncPlYjSmQ+9OzmYpr46SY5iz03HMZo7zxlvdfhbAIkSBZswvREA1zjde8/mpAZNjuSX4LySACZu8lSFfAADhdYEu1i9EgItcCjRjfiECTMfkNst8IQFshM77C2S+AABrg5JC8BfSABM2BRYofCECWnHwkXah3jVQUukrKi0OyEb+5uL2zwa4gqrw39b0BUrj/tgRLPOLxhWHs4mwXErznPuB/wPQG6UFnxuwGAAAAABJRU5ErkJggg==;" parent="1" vertex="1">
          <mxGeometry x="260" y="466" width="279.26" height="145" as="geometry" />
        </mxCell>
        <mxCell id="0Fw2PE83Rp96BrffDZTG-49" value="" style="shape=image;verticalLabelPosition=bottom;labelBackgroundColor=default;verticalAlign=top;aspect=fixed;imageAspect=0;image=data:image/png,iVBORw0KGgoAAAANSUhEUgAAAOEAAADhCAMAAAAJbSJIAAAA7VBMVEX///80N0HwTpgAv7MAu673q8nvRJTw+vovMj0ZHixZW2IdIS8nKzeam5/wSpZ/gIX19vbybKcSGCjj5OXu7+/V1tckKDQgJDG6u72PkJQ4O0WsrbAsLzoPFSYWGypMTlbe3+DvOpBrbXPNzc/0iLb71uUrNj4ZNTm36OSMjZFgz8d2eH1FSFC/wMJhY2oAABvxWJ3+8vf6zN/zfLD2o8bSSolLOUqwRXiF2dI1xrzR8O6m494AABGjpKdUVl34ttH1lr/84eyOX3h5O12JQGWeQm+3RntyPVvaS41WOk/FX45/19Dg9fNQzMIAABQmUmrfAAALLUlEQVR4nO2da5uiOBaApaq2GgSrbERARaRkd6sdLWsvU32bsWZ2u7pnd6dn/v/PWS5JyAmEm/gQe/J+UwPkNSHnHHyEwUAikUgkEomkBj/96XR8//e+7WJeX5+Mu+/7lkt4fXNxIq7/3LdbyskMr1/3rYY4leHN3/o2w5zI8OZaiFUm5kSGd//qW4xwGsO7f/TtlXESw7uf+taiOIXh9c99W9GcwPD6n31LAbo3vBElECI6N7y5ECZOpHRueC1OnEjp2vDuL30bsXRsKFScSOnWUJCCCdCpoSgFE6BLQ2EKJkCHhuIUTIDuDAUqmADdGQpUMAE6MxSpYAJ0ZShgIER0ZChWwQToxlCwggnQiaGgcSKlC8Obi74tyujC8E7MQIjowFC8gglwvKG4cSLlaEMRCybAsYZCFkyAIw3FLJgAxxkKHQgRRxmKWjABjjIUtWACHGMobMEEOMJQ9ECIaG8ocMEEaG0ocsEEaGso2i9MfFoaCvcLE5+WhucQCBGvbxIaCgpeMAH+/enTy8vnd1+enqKpV9f0TOJEyvCvKff398rbX16+PF1UawpfMAGGqpKRmL59efef0tEUv2ACAEPsea/8EltyBM8mTqQUGCLLt5+fiiTPoWACcAwTy/v5S24kb27OJ06klBgmkm8/XwDHsyiYAOWGieSnp8zxPAomQKVh7PjfL2iynlUgRNQwjB2Vd7HjuRRMgFqGEffzdzdnUzAB6hpGjur/+u5sK+obqsq47862or6hPum7r+2obbic9t3VltQ1NN2+e9qWmob6qO+Otqaeob2FW33tp7OtqGVo7OFG769+6Ke3bahjqM7hNm+uLq++66e7LahhqBoW2OTj1eXl5dXlq5563JQahloAtngVC8aOH/vpcVOqDZch3OIScyYnY6Whv4AbfLjMFH/tp8/NqDJ0NrD9d1eXlOI5rDcVhsYaNn9PC0aKv/XT6yaUG3or2PoHKBgpfuin2w0oNVTnsGD6yApGCK9YaujAgulrgaD4imWGJiyYXhX5ia9YYsgWTB84hoIvN3xDtmD6rXCOih80uIb2LWz4K1cwUnzfT+drwTP0mIIpFyegosAJHMdQ3cFmb0oFhU7DOYZOQcFUjrDFVLEhp2AqQ9iYUWjILZjK5qmohUaRYUnBVKb4ph+DKgoMSwumMkUxT8W8YUXBVIKYuU3OsLJgKhlEIaMia8j+wlQjTgg+T1nDWgUTFxFDBmO4rFcwcQdRwPUUGtYtmPiK/ViUAQzrF0xcQ/HiPm3YpGDiKgr3sxRlaAzhRw3iBIVwQTEzbFow8QZRtDqKGKpe44KpGNEiBjE0A/B+nYKJM4iCRQxsaLYomHj0Y8IDGbYrmM5iEFPDtgVTMWKdiYlh+4KpeBCFWk5jwyMKpmKEukIcGR5VMBUPokiJTWSoH1UwFRqKdA18qPrHFUzF9GRTxHB5bMFUhEgBY3V0wVSIQPk3I9imYCpCyCs2MUcGQspQyMturQumIgSaphTHB8IMIadpN3ECGwq0mhK6FBQsc0vpJBBS9O2T47iCKY9YBcagwzhBDEXKTQcdFEx5xIoXXcYJjFAX+DsomAoMBToRv16dBIESt1cnom8viUQikUgkEolEIpFIJBKJRCKRSCQSiUQikUgkEskfnO1SS/gx98kMfaIt038AWT+ilujfJOPf09e/h7lNheLWQ38mZD9Y+PieEOivsJaWvtawIXqtC37HZ55huMR/hVXRX5xyhvpZGwY6/jczFvrGDMce+a8v6f+3ZbjDgssH8t43Zbj38BQ9ZG9apppgfgOGtzYSBP/1tearhPn5G47wKsP+1xdyvoYujhPec+mWZ2s4xZGeva06y7kaTjQsyNz0IseZGo4VHCf8oGLLMzV8xnGCvelFHsZwPHVdNyx77Mo4eIibBBX7tcKo1ZT/gJog/vyhpAEDNFwbWDD/fJHxYZFwQLMXGIZrTXNsx/HV2+IhDUYrX3fiJpq+X4DuWWjH0+QgO1OPWun+/qFgL+PF3omOE+1FN3ezek+xAYYbB0f6gueLWI92wmM+HlpDDY+94vnDIO839I3szkSq41CZxGCa7ngZvec6Nrn5jfbMLgTjjW9TezHMbZ2BpA1JwcTe/Sk15GZtE4f4JYdeHphNR0v2Nn06dfulabojezG49cF+HPhVhYbB7MWza6wBlCEpmIojPc/QCVW2/xr8hta6ksPIgi02dG8d2EY16DFaLPN7UZbVMzUzDEjJuypsyTNUdgX3wqQVt07uc4WeJ8hQfWaHSPGoZ9U8FAlWBm3KULNwwcTeN77SEG2m0kPpZyuVS1IIWzNNjWiQezAhQxSn4G5wG+pohu6bvoMb2ZVPJMKG2UjwIn2poaHt9vudbpM3fLIXrGTs3MlgPBnhxcLDgzjV4X6GHhl0g6T+WwN/TaNgPLDcHd6tU9sQY/OeQ1ViqOppCLEWBt4d6f9haXjxsJBZaeEmuG+UoTlL9uMSRTwJJ4/pXtQd/ubWaDd6VeDOGSpq4zHMDjsYk5QBD6I72myHO8XJTu4QbahNWUOSHgU4dzTRXqajze1+Nfces86hQTSqpikxJOcHe5u5akNwOx48220YMugmeAxdxlDLgvzGYJzzu9mkPVdLSzzK0Jhlk39f2JJrqIF5MjHLv6iIdfolGAdoqFLHxe85RZlNCprKJceBhmaWseVu41VuqDJl5NaD0zQPamHMSmzQAsxdFaLwgYakKl5QET+La9qioCXP0GYa49OMWQLG0wd3sXBDi2uo0dEbz3XWMEj28hA1DZsbjrO1nr3/eJmhxqQVYydvHszmyyihjtB9dbNXCw1N+lydFxhai6EZ591x+u6vZ15jw8HUJIpOPhviZm1sgoDmQrbIBUOTyrsVnFo0NQR5d1ShK80NBy5RLHiCKHelYRs+wyGKEsriRw00Mwy8XFLXwnCQLajekG1Z23AIDQ+mUkwjw0DjPTekmSG1oLJPaOSvNOwu4SydkozZczRN021yhEaG5OqKauvRbpxs2jc0pBZUnany6q40A7RgoZVmhRN6ZxNOrMnU3XgkBNc3HOFV0F+7U8sKwtEKT7emhla2oJow2nJXGmZBJ+EtWY/xxUl1mPWfEy3KDEkpkeU4rt3OMLteyl5u40Z8JgW6BRH/gNNHqvsjo6khzlPppAD/ANjYkF5QQY3NXWngzXYtsnnyEo0XXcu2MMT5C33OT1sbUgsqyPm4hjAz3MNoh156dNG/bhzx8YxUqRZu85wm60G23FGJO7+2oB+DtMbnMRpZZEN/C/g8aGFIr2p4TWxjSC2ozoy8WVI9eXN0foSk9MZnJ6pxFIfkcDhvbWIY5s5567lVTkM2p65GkJ6VXcVQHXU9m20VnXw1+OTEZ5Cib+LtxuGarGQNDMf45DaGyQodzJzW8RAdNMtDyMMduGspGkfPoC4XZAVYliVp9lzVqEurTaIFLskUVdfnc12nMrh2htkFsuxJVRxDdTtXclA/PR7y1xJbZN6T/LVEPIgtDekFdV5q6M3C3NEN+opr7jKo3Xwtjb4ojdmLt54fZ0gtqCgJ5xlucsWDBi+drGzw6XI0dZobDmYwgbdXg5pr6VY3Eh5zn+wcA2Em4dp6RC2x4TJ5GV/BD5XsxFcdg63LN0uP+vRhEKIt0bk6XaId04aenbxH3dCX+tVGMZbRtnrSxPYqDN1Ryiz3iTUizILYaIZe4F/X0OskUCyefcc24hL+ueAKyGSj+vFvYujTCb1l9hJ0AR+avtZ2WPl6XOH786QPuEmFYWdY4eJwWIS8y0+Th8Wi7HfPugdxF4vSn2ElEolEIpH8Mfg/F4QuNDcZJS0AAAAASUVORK5CYII=;" parent="1" vertex="1">
          <mxGeometry x="345.5" y="934" width="115" height="115" as="geometry" />
        </mxCell>
        <mxCell id="0Fw2PE83Rp96BrffDZTG-55" value="" style="shape=image;verticalLabelPosition=bottom;labelBackgroundColor=default;verticalAlign=top;aspect=fixed;imageAspect=0;image=data:image/jpeg,/9j/4AAQSkZJRgABAQAAAQABAAD/2wCEAAkGBxASERAREhAWFRATFhATFRAVFhUXGBYWFxYWGBUaExMYHCggGSYnHBgXITMiJSkrLjouFyE/ODMtOCg5LisBCgoKDQ0OGxAQGC4dIB4tKystNzYwNyszLzc3LTctNzc3NzctLS0uNzctNDUvLSs3NTctLy83Lys3Ny8uNysvNf/AABEIAKoBKQMBIgACEQEDEQH/xAAcAAEAAgIDAQAAAAAAAAAAAAAABgcFCAEDBAL/xABKEAABAwIDBQMGCggBDQAAAAABAAIDBBEFEiEGBzFBURNhcRQiMkKBkQgjM1JicnShsbIVJDRDc8HD8JIWNVVjgpSio7PC0dPh/8QAGQEBAQEBAQEAAAAAAAAAAAAAAAEFAwQG/8QAIxEBAAIDAAICAgMBAAAAAAAAAAECAwQREiEFQVFxMTIzE//aAAwDAQACEQMRAD8AvFERAREQEREBERAREQEREBERAREQEREBERAREQEREBERAREQEREBERAREQEREBERAREQEREBERAREQEREBERAREQEREBFwgcg5REQEREBERAREQEREBERAREQEREBERAREQEREBERAREQEREBERAREQEREBERBHNuK90UAaw2dK7LccQ0C7rfcPaoVgeKOppWvBOS4D2fObz06jiFnN4k95YWfNY53+I2/7V4sRwPLR09S0a5QZB3OJLHffb3dF8/t2yX2LWpP8ATjf1K4qa9a3j/TqxYZQ5rXNN2uAII5g8F2KvdndqRTxGORjnhp+LtbQHiCT3/ivqs23nd8mxjB1N3n+Q+5e+Pk8HhFrT7/DwT8bn85rEevysBFVEmOVbnA+USZuQBtr3NbofcrQoi/s4+0+Uytz/AFrDN9666u5XYmYrExxy2tO2vEeUxPXeiIvY8giIgIiICIiAiIgIiICIiAiIgIiICIiAiIgIiICIiAiIgIi4KDxYhi1PB8rK1p+bxd7GjVR2t24YLiGIuPznnKPcLk/coli0cjZ5RLftMziSedzoR3W4L1YJPRtP6xC930g67R4sFvxKwb/IZr38ImKftu0+Pw0pF5ib/p0V1VNVylxbmkIDQ1jToBw01PNWkylb2QiIuzIGEHmLWt7l58IqKZ7P1csyji1gAt9ZvEe1ZBaGnrRj7abeU2Z+3s/9OUivjFUSp9hoQSXyvcLmzRZunK51J06WWI2llpob09PG0OHykvpEfRa51yD193hM9oZJW08roflA2/eB6xb32vZV7sxDFJUxtm1abkA8HP4gO8dfE26rxbdMeO1cOKsRNvt7NS+TJFs2W0zFfpINjNn7ZamUa8Y2Hl9Mj8Pf4TMLgLlamvgrhp41ZmfPbNfzsIiLu4iIvPUVsUfykrGfWc1v4lB6EXTT1UcmrJGvHVrg78F3ICIvNPiELDZ8zGno57QfcSg9KLqgqGPF2Pa4dWkEe8LtQEQlcBwPBByiIgIiICIiD4nmaxrnuIaxoLnOOgAAuST4LXzbfepV1UjoqOR8FLfK0su2aXkCXjzmX5NbY9TyFub0g/8ARGIZL37I3t8y47T/AIMyoHd5jcFFiEFROzNEMzC61zHnFhI0c8vvsTbXRSVh4m4xiNPIHeU1UUujvPkmaT3ljz5w8QQr63UbZy4jTyCdhE8Bax0rWkRyAi4INrNd1b4HgbDN7S7M0WKQxCbz2BzJY5Y3AG2hIbIPVc3Q263GoBGXw+hhgjZDDG2OJgs1jRYAeH81R6UVYbY74aeme6GkjFTK0kOlzZYWkcQHC5kI7rDvUJG+jFc18lMW39Ds5OH1u0v7UONhUUA2A3nQYg4U8jOwqyCWszZmSW1PZP0NwNcpF7cL2Np+iCKtdtN7lNSPfBTM8pnaSHOzZYmEcQXgEvI6DTvvooId9GK5r5KbLf0Ozk4fW7S6LxsKirzYHelBXvbTzRiCqPojNmjltxDHGxB55T7CVOsRrooIpJpXhkUbS97zwAH98ER81+GwzDLLGHDkTxHg4aj2KIY3sxTUzX1MlQ5lLGC+S7czgOjSOOunAlQ/Fd+T+0IpqJpiHB8zyHOHXI0eb4XK9W121Utbs06pkY2N1RMyIMYSRZk4vqevZuXny62HLPb1674tjNijlLcduxW3BrMThpKSEQULGzyPvYyzZW5WmR3qjM5psCToNeStDE8Rhp4nTTSBkTbXe49TYAdSSQAOpVFbiezjqq2qlcGR09N50jjYND3gkk+Eaxu3G09VjdXHTUzHdjmLaeAaFzuBml6aa6+iL8yV2rEVjkOVpmZ7K+ZtpKZsr4ZHFj2mxzA5TcA+kL8jzsoFjlM2KcmF4Mbj2kb2EG2vAEcwf5KRY1srPK4StewyFkYe3UAva0Bxa62vDmAozV4NUxHz4HjvAzD3tuFhb9s9u1vT1E+pbmhXBXlq39zHuJWTgOJCogZJ63B46OHH/wA+BWRUX2Fw+WOOR0jS0PLS1jtDoDckHhe/3KULY1r2vira/wDPGRs0rTLatJ7HRERd3BWG+TbeajEdHSuLaiZud8rdXMjJLWiMcnOIdryDTbUgjB4PuUkmaJq6rc2Z4DixrQ9zSeUk0hOY9bD2lePflSSQ4lS1obdjmQ5SeHaQSOeWk8rhzT7+iuPZ3HqetgbPTyBzDa7fWY62rZG+qQiq3wndHLRV1LVU9UJIo5WGRjm9m/JwPnNJD+PAge1WvU1DI2PkkcGxsa57nuNg1rRcknlYLtVab+MXdFQR07TY1UmV38OMZne92QHuJRERxvbHE8ZqTSYbnjp9bZSY3OYDYyTyjWNv0R1t5x0WVotxTCM1RXEyHU9lG0AHve8ku8bBSrc9s+ymw6KXL8dVBs73c8rtYm+AYRp1c7qp0gozFd09fQ3qMOq3PczzsjAYZbD5pa4tl+qbX6HgpXur3iGuvSVVhWNBLXgZRM1vpeb6rxzHtFrECyFr/vUpv0bjENbAMofkqrDnIx1phb6Qtf8AiFFW9vF/zViX2ao/IVDfg+H9TrPtP9GJS/b+QOwjEHDg6lncPAxkhRD4Pf7HWfaf6MSItRERAREQEREHzIwOBa4AtIIIOoIOhBC1t3mbBvw6UyRAuoZHfFu49k4/u3n8p5jTiNbpx7eHhtJMynfOHTOeyNzI7O7LM4AumdezAL3Ivew4KRV9FFPE+GVgfFI0tcw6hwP98UFDbpNv3UkjKKodejkcGxuP7h7jpr8wk6jkTfhdTXfhtS+mpo6SFxbLVZ8zhoWwtsH2PIuJDfDMqM2gomRVFVBE/tI45Jo2P4lwa4tbqOJ5KY7553HEIo3m7oaSlY765zvd+YKKye6jdvHWM8sqwfJsxbFACW9plNnOe4ahoIIAFrkHlxtOs3d4RJGYzQQsBFg+NojeO8SNsfevLuixCKXCaRsZGaFvYyN5te063HeCHeDlL6idkbXPe4NY0FznuIAaBqSSeCo1U2mwuXC6+WJkh7SneySGXgSLB8TjbnwB5XBVw71ttHw4bTCF2SavY0hwNiyIsa6QtPI+c1t/pE8lVG2OIOxXFJXQAnt5I4IBbUtADGuI5XN39wPcpTv2ozFLhsY+TZTOjZ4sc0O+7IoOjdTu6ZXg1VVfyRrixkTSWmVzfSu4ataOGhBJB4W1tyo3e4Q+Mx/o+AAi2ZjAx47xI2zge+6xe5bEIpcKgjYRngMscjOYcXueCR9JrgfaeinMsjWtLnEBrQSXE2AA1JJPBUaqbY4I/Da+WBjzeJzJYZfWymz43G3MHS/VpVmb3cedNguGvGnljqeV7eoEJkI9j8h9ihu++pDsWnt+7hp2Hxyl/wCDwspvhb2VPgdIOENKSR35YWD8rlB6tzmw9FXQVFRVxGTLL2Ubc72AAMY5x8wgkkutr0WR320kNJh2H0VOzJCJ3ubHdxsGseTq4knzpL6nmpPuQpsmEQu5ySVL/wDmOYPuYFCvhDVN6mhiv6EU0hH13taP+mUPtVsdZI2OSFriI5DG6Rg9cx5uzzdQC5xtwvY8gtgNzOztJDRR1cTxLPUNHaS/MsdYWg+jlOh5ki/CwEDwPYXy3ABPE29Yyaplj6yMBbG+P2iO4+kO8rHbp9tP0fUdlK61HUECS/CKTg2TuHAO7rH1UGyNksuAbrlVCyIiAiIgx+O4NT1kL6eojD4nW0OhBHBzXDVpHUKlsb2CxTCJHVeHTPkibqXMt2oaNbTQ2yyt7wDx9EcVfKIK43cbz465zaapa2OrI8xzfk5rC5yX9F1tcpv3HkI38Iu+fDemStt43p//AIsNvrw+OixGKoprMfIwVBa3QNljfo8AcMxAPi09VO99eDPqMNZUNb59K4SuA49m5tpfd5rj3MKKm+zTmmjoy30TBTkeHZtsskq73LbSMqKFlK5w8opAIy3mYr/FOA5gCzT3t7wrERBUj8IwjtMP6iOsJ8LwW/mrtJWv+11SMaxyGngOaBhbBmHAsY4vqJAenEA88reoQWhtQ0jAKgH0hQEHxEOqjnwe/wBjrPtP9GJTHeILYTiIHAU0/wCQqHfB7/Y6z7T/AEYkFqIiICIiAuCFyiDV/eHsXNh1RJaMmie5zoZgLsDXG4Y8jRpF7a8bXHQY2HbHEexFKyumMNsgia65twytcBntysD3LbFzQRYi4PIrohoYWG7ImNPVrWg+8BTi9Ulus3aTOmirKyIxQxFr4oHiz5HjVrnsOrWg2NjYkgaW4xTeVK6fGa0N1JmjhaO9rI4wP8QW0C1awN7avHIiHBwlrzLob3aJjL+UIQ8glxLCpnazUk3om+jXgcON2SDjY6jovRNjGL4qRCZZ6oXHxTGgMvxBeIwGe13BbTPYCLEAjoRdGMAFgAB0AsnDqt91+7byEirqsrqwghjAbthB42d6ziNCRoBcC/E57ePsgMTpeza4NqIz2kMh4ZrWLX21yuGh6WB1tZSxFUanvGJYVOSe2pJvRzcGvHTNqyUe8LI0mO4ris9PTyVE1RE6aAPjY0BgbnbmMgiaBYC587otnXsBFiAR0IujI2tFmgAdALKL1rLtlRzVWM1VoZC2SqbDm7N+XK0shvmta1m8Vm9+LJZMSa1kUjmRU8LAWse4XLnuOoHQtWwKKnUe3e0ZhwvD4yLOEERc06EOc3M648SVTW+xksuKuywyObHDBHmbG9w9d51A/wBYthkREX3ZUZiwqgY5pa7sg9zSLEGQl5uP9pVTvk2IfBU+V08TnQVJcZGMaXdnNxPmjWz9XeId1Cv5EFX7l9qZpIvIKpkjZIW/EyPY8Z4h6hc4ek37226FWgiICIiAiIgqneFJjlLiDqugZI+ldFE1zGtErC9pdfPCDmBsW+c0DxWJbvaxe2T9Fgy8LiKptf8AhWv7MyuxEFJbPbF4lidcyvxRpjiaWO7NwyueGG7I2RXuxl+ObU3PG9xdb2AgggEEEEHUEHiCF9IgpPajdnW0dR5ZhDnZQS4QscBJFfi1mbSRn0Trys5dbd7GMU7S2qw5pc3QyPjmh7vOuC069LBXguitpI5o3xSsD43tLXscLhzToQQgot+0G0GONdFTxtZTE5JDF8WzgCWyzPcXHQi4bxB4FWTu72CiwyNzi7tKqQASTWsABrkiHJt9b8SfAAVjitNV7NV4mhJfQzaAOPmyN4mKQ8nt4td01184K7dnMep66nZUU780buI9ZrubXjkR/ehRXk28p3yYbXxxsL5H087WsaCXOJYQA0DUlUrslX4/hsckVNhzy2R/aO7Wlncc2VrdC1zdLNC2IREUp/l1tR/o0f7nUf8AsVh7vcWr6mmfJXwdjOJXsDOzfFdgYwg5XkniXa9ylCICIiAiIgIiIC6GUcQIIjYCOBDWgjwNl3ogIiICIiAiIgIiICIiAiIgIiICIiAiIgIiICIiAiIg654GPFnsa4cbOAIv4FfNPSxx3yMa2/HK0Nv42XciAiIgIiICIiAiIgIiICIiAiIgIiICIiAiIgIiICIiAiIgIiICIiAiIgIiICIiAiIgIiICIiAiIgIiICIiAiIgIiICIiAiIgIiICIiAiIgIiICIiAiIgIiICIiAiIgIiICIiAiIgIiICIiAiIgIiICIiAiIgIiICIiAiIgIiICIiAiIgIiICIiAiIgIiICIiAiIgIiICIiD//Z;" parent="1" vertex="1">
          <mxGeometry x="-376" y="49" width="292.63" height="167.5" as="geometry" />
        </mxCell>
        <mxCell id="0Fw2PE83Rp96BrffDZTG-80" value="&lt;b style=&quot;&quot;&gt;&lt;font style=&quot;font-size: 24px;&quot;&gt;Data collection&lt;/font&gt;&lt;/b&gt;" style="text;html=1;strokeColor=none;fillColor=none;align=center;verticalAlign=middle;whiteSpace=wrap;rounded=0;fontFamily=Helvetica;fontSize=18;" parent="1" vertex="1">
          <mxGeometry x="-582" y="820" width="274" as="geometry" />
        </mxCell>
        <mxCell id="0Fw2PE83Rp96BrffDZTG-81" value="&lt;b style=&quot;font-size: 24px;&quot;&gt;Data storage&lt;/b&gt;" style="text;html=1;strokeColor=none;fillColor=none;align=center;verticalAlign=middle;whiteSpace=wrap;rounded=0;fontFamily=Helvetica;fontSize=18;" parent="1" vertex="1">
          <mxGeometry x="307" y="37" width="180" as="geometry" />
        </mxCell>
        <mxCell id="UZZHgDdGykuvsF3FpF1L-26" style="edgeStyle=none;rounded=0;orthogonalLoop=1;jettySize=auto;html=1;entryX=0.5;entryY=0;entryDx=0;entryDy=0;fontSize=24;startArrow=none;startFill=0;endArrow=classic;endFill=1;" edge="1" parent="1" source="0Fw2PE83Rp96BrffDZTG-48" target="0Fw2PE83Rp96BrffDZTG-49">
          <mxGeometry relative="1" as="geometry" />
        </mxCell>
        <mxCell id="0Fw2PE83Rp96BrffDZTG-48" value="" style="shape=image;verticalLabelPosition=bottom;labelBackgroundColor=default;verticalAlign=top;aspect=fixed;imageAspect=0;image=data:image/png,iVBORw0KGgoAAAANSUhEUgAAATIAAACkCAMAAAAjUFIdAAABKVBMVEX////uvjRHvbAjHyAfptzWoTgWm48AAAAhOUMhGhrF0NbW7+zUnCjw3LjtuyL45bgSFBjn9/VJtuLZ8PnFxMRubGz29va5uLhGQ0RLSUnW1dVgXl85uqzuvCwfquEfodWrqqrt7e3k5OQAoNqPjo6Bf3+fnp7hrjYopprd3d1zcXIqJieOjY3Kyso7OTkPBgn99+TxymD668b78dfp9ftaw7ek3NaV18+0s7NVUlMVDhAxLS6ko6P236zz0XPwxET23qHwx1Lhs0/mwnv11onr0J7ht2Leqzf158nmxojv2bP56L6errYNLDc+kLJ0xOiUz+y84PMhEAccYH5leYEgfqQjFxIiX3siT2QVHSMiQE+w3fEjKzEjLzdZaHCJmqKLzOt5wbm/49+opa2DAAAHgUlEQVR4nO2caXvaRhCAZQt3o5Dg4CBxCFJJSKoBgWwnHBI+0yalcdocbdM2Rxv7//+I7koCYxt0YKK12Xm/IC9IaN5ndna0fmyOAwAAAAAAAAAAAAAAAAAAWBF2RqebB4TN09EO7Zu57eyMDg6Pcpc5OjzeA3GzeXq8e1TL1dauQsZ2j5/Svr1bx87x7ixdU9pOjiHXptg7DPM1sXa4R/tGbwubJ5G+xtZONmnf7G1g7yimMF/aEfOZNnqei+0rkLbL9Eog/fhgYyOZMixt7Sfa902P0XNsbGPjh6TSciesJtoLT9gizmq1A9o3TwPp5djYAs7Wcoe07z99djYujC3irHbCWmc7mha2mLM1tgrawyvGFnM2oh1Gilw3lrzXYMvZ6LqwBZ2xMjd3Zhrb+HkBZ0dsrAHSbGOLOTuhHU0qvJynbIElYK22SzucFHgxo/QvXs5yx7Tj+fZcbchuNjVzDDyhS89DjCWemiwY434JS7KEU7OWY2GPNnRaJkuzWu6QiQ5j/mqZMM1quV02drRfRSVZrDSrkV82ndKOJSU2HkRTy4WzdnRyeMDElCTsvHoYzWYop6OnzOgCAAAAAAD4Nrz+9V48vvy2NZM3b989ox1EuoiuEI/3vz/JzKSeyWw9ph1Giqj3BD4ewr05yjzesJNpjUcxjfH8+zBlmSfvaIeSFq/t+Mq+D1OWybDi7A83vrI/Q9Msk2FkbjpxSxlWNq/+j9miHUw6lOIr+/BXhLL6J9rRpIH2OYGyv8ONYWiHkwb3/4ltjBc+RhljIs3ux+8xcGMWsWTi7ox2PCnQRgmUfY5UlpFoB/TtKSxXWZ2BPiOJMp6PVsbAsyYoS0wiZS1Qxi2/ljFQ/ttJmowvkcpYeGRK1MpG9mX1t7TjSYHG5wTKort/BnoM7llnmc+YLDT/iTZ/PkRt/jCyYfbv8rYYmXgox/yXYCM7XFn9K+1YUqISvzEL3/uvf6UdSlok2GMUQpKsnmFkVhLkuMVM+DhXWZ2lX2PiYoYexcOeu2BufWLg0XIK6X5cHs+GpfwCAAAAACAR+Wwc8qEwsIM9Tf67OFTXw+me9bK0I0mPsxjGtiOMYarr3X6ediwpESfNopJsbI0Vaf1lJFkgrdqnHU06bC8nyYJMY6KmZZeVZL60Hu140qAXriyRMeyMickZOjWTJRkreRa6aiY1hqEdTxqczzeWoPaPs4yJFWB+OUs8Lder57SDSYk5zhYwxkIl85n94JR4WjJkbLYzMBbOdWfQX0Rx9WkTjEXTu5mxdVbWymmy24sbq3YZ2fq5ytnCxph4tJzJ+fYixqpdNlr+2eTPFsgxVvZj55HdTrhFdsZyigVku/GbWLbn5BTZfjWOtWq1D8Im5HvdCGvVarfHeA27RrbfXZ9njfziEhJsFvlzrA3nU3Uqt/Bxt38O+RVCPnve6/fPuh79fu88C7oAAAAAAAAAAAAAAACAVURrRH1CutkfKEmNVfsDJxlFfEASmzf6ggIa3Oj824c4V5kqK+RFag1v9AUFVLzR+beP+co011rGFzCljNeX8QWrokxqm3pRI0eesrZiNWWj7b1VMERDVzSubfLyQFEkTlHIcMNsNnVyVNHxwX6FjKkF3WyT4i4VTUMUdZWM6Q1OU/ClVMUQLVPFypSKYugFClEuE8lBZYd3SRhEmSR3yo7cQsSZgYZOaYgUzuAFvtVqSVKnhIeLtl1yOiWJGyC+XO4IIh5rD3mnjMrYfEUolWUH4be5CtINFyeW1kEdpyQ0sLIWGpZaaCmznB6WrXnepOmJqQ3L5F9AG+RYJcHzBmkwpBIelkotLyc5yXXIgUoSShA9RZMFVSFTsIIQb1YkrmkH87GALNxmSI6tphjg0pFwEnEkGOVSLWviwwGqjH/UeM+ep6yN9oPBi2wpIk9C09Yml9WJMu8DqisGo0EtK6I7PTXbyOtfvRDHyiStIbskYqcdpMO0Mn1i0h0OgubX6HgvReTXQFUr+MoU/yvM4IRA2cXAnWSA5KYoNkWSEJ6yhtXhbVcQ8KFu42KlE0HTyix7rKw4RG7H8KpgSyRXcYjNojh0bcG+UFbwX7iJssrdVqYgR/YY+MrUIW8VGqrokje1ouG4dmGeMrJMyrwn2/UvIms402SlorXR6iorXhQsT9nAj6ppjwfbw9JlZWYw+wJUh9e4pjD52fHmqHZpYo6butVQpk1SwFdm+jlk2BejLaLMWwuD8n+5rd3H1XAfjes+15H9y14oUwU5eG81lElOa7LiE2X+LFJloszbdqjwMnFV8j5MlKkdN0hM70SpPFSxofGiyMkuOa1ApmugDD/u+68rogwnDekzO6RL8FrZMiqVBNxy8moD2aTv5EkCWYgvCarfyg4QEoauq3I2auETvd0JA7llp9SSJexDcIa4IcM9WiVoRxpDfCUBz+dgJ+OuK+Ma+KnH0PdxbhRJJKrZNHD/OWiq0sC0msa+n0uKYVjjByZNsSyzKHGFfcswTL/PKBr4KiZJorZlWIqq6San7gc9iFrUDVPByah7A5rVvn4bAAAAAAAAAAAAAAAAABCf/wGl6ArsPxTvigAAAABJRU5ErkJggg==;" parent="1" vertex="1">
          <mxGeometry x="267.53000000000003" y="690" width="270.93" height="145.2" as="geometry" />
        </mxCell>
        <mxCell id="UZZHgDdGykuvsF3FpF1L-24" value="Read" style="text;html=1;strokeColor=none;fillColor=none;align=center;verticalAlign=middle;whiteSpace=wrap;rounded=0;fontSize=24;" vertex="1" parent="1">
          <mxGeometry x="253" y="350" width="60" height="30" as="geometry" />
        </mxCell>
        <mxCell id="UZZHgDdGykuvsF3FpF1L-25" value="Write" style="text;html=1;strokeColor=none;fillColor=none;align=center;verticalAlign=middle;whiteSpace=wrap;rounded=0;fontSize=24;" vertex="1" parent="1">
          <mxGeometry x="487" y="350" width="60" height="30" as="geometry" />
        </mxCell>
        <mxCell id="UZZHgDdGykuvsF3FpF1L-28" value="&lt;b style=&quot;font-size: 24px;&quot;&gt;Trực quan hóa dữ liệu&lt;/b&gt;" style="text;html=1;strokeColor=none;fillColor=none;align=center;verticalAlign=middle;whiteSpace=wrap;rounded=0;fontFamily=Helvetica;fontSize=18;" vertex="1" parent="1">
          <mxGeometry x="274" y="1071" width="302" as="geometry" />
        </mxCell>
        <mxCell id="UZZHgDdGykuvsF3FpF1L-53" value="&lt;b&gt;Analytics engine&lt;/b&gt;" style="text;html=1;strokeColor=none;fillColor=none;align=center;verticalAlign=middle;whiteSpace=wrap;rounded=0;fontSize=24;" vertex="1" parent="1">
          <mxGeometry x="649" y="553" width="117" height="118" as="geometry" />
        </mxCell>
      </root>
    </mxGraphModel>
  </diagram>
</mxfile>
